<svg xmlns="http://www.w3.org/2000/svg" xmlns:xlink="http://www.w3.org/1999/xlink" version="1.1" x="0px" y="0px" viewBox="0 0 500 500" style="enable-background:new 0 0 500 500;" xml:space="preserve">
<g id="BACKGROUND">
	<rect style="fill:#edf9fe;" width="500" height="500"/>
</g>
<g id="OBJECTS">
	<g>
		<g>
			<g>
				<path style="fill:#1e3f84;" d="M453.557,170.06c-21.514-7.756-45.37-9.344-67.783-4.511c-6.652,1.434-13.352,3.508-18.648,7.649      c-5.296,4.141-8.967,10.719-7.944,17.224c0.856,5.444,4.855,10.078,9.704,12.979c4.849,2.901,10.496,4.288,16.102,5.307      c18.417,3.347,37.521,3.125,55.849-0.649c6.717-1.383,13.51-3.324,18.939-7.385C473.509,190.401,468.341,175.39,453.557,170.06z      "/>
			</g>
		</g>
		<g style="opacity:0.66;">
			<path style="fill:#03eaf4;" d="M386.518,191.648h-2.5l-0.933,5.312h-2.371l0.933-5.312h-2.941v-2.229h3.329l0.648-3.705h-3.006     v-2.229h3.407l0.946-5.39h2.358l-0.946,5.39h2.514l0.945-5.39h2.371l-0.945,5.39h2.837v2.229h-3.239l-0.648,3.705h2.902v2.229     h-3.291l-0.933,5.312h-2.371L386.518,191.648z M384.406,189.419h2.501l0.648-3.705h-2.514L384.406,189.419z"/>
			<path style="fill:#03eaf4;" d="M407.394,192.01c0-0.734-0.259-1.297-0.778-1.691c-0.517-0.393-1.45-0.807-2.798-1.243     c-1.347-0.436-2.414-0.866-3.2-1.289c-2.142-1.157-3.213-2.716-3.213-4.677c0-1.019,0.287-1.928,0.861-2.727     c0.574-0.799,1.399-1.423,2.475-1.872c1.076-0.449,2.282-0.674,3.621-0.674c1.347,0,2.548,0.245,3.602,0.732     c1.054,0.488,1.872,1.177,2.455,2.066c0.583,0.89,0.875,1.9,0.875,3.032h-3.887c0-0.863-0.272-1.535-0.816-2.014     c-0.544-0.479-1.308-0.719-2.292-0.719c-0.951,0-1.689,0.201-2.216,0.603c-0.527,0.402-0.791,0.931-0.791,1.587     c0,0.613,0.309,1.127,0.926,1.542c0.617,0.414,1.527,0.803,2.727,1.166c2.211,0.665,3.822,1.49,4.833,2.475     c1.01,0.985,1.516,2.211,1.516,3.679c0,1.632-0.618,2.913-1.853,3.842c-1.235,0.929-2.898,1.393-4.987,1.393     c-1.452,0-2.773-0.266-3.964-0.797c-1.193-0.531-2.101-1.259-2.728-2.183c-0.626-0.924-0.939-1.995-0.939-3.213h3.899     c0,2.082,1.244,3.123,3.732,3.123c0.924,0,1.645-0.188,2.163-0.564C407.134,193.209,407.394,192.684,407.394,192.01z"/>
			<path style="fill:#03eaf4;" d="M430.515,187.956c0,1.762-0.285,3.293-0.855,4.593c-0.57,1.3-1.36,2.343-2.371,3.129l3.136,2.462     l-2.475,2.189l-4.017-3.226c-0.457,0.078-0.932,0.117-1.425,0.117c-1.563,0-2.958-0.376-4.185-1.127     c-1.226-0.752-2.176-1.825-2.85-3.22c-0.674-1.395-1.015-2.999-1.023-4.813v-0.933c0-1.857,0.334-3.492,1.003-4.904     c0.67-1.412,1.615-2.496,2.838-3.252c1.222-0.755,2.618-1.134,4.191-1.134c1.572,0,2.969,0.378,4.191,1.134     c1.222,0.756,2.168,1.84,2.838,3.252c0.669,1.412,1.003,3.042,1.003,4.891V187.956z M426.576,187.1     c0-1.978-0.354-3.48-1.062-4.508c-0.709-1.028-1.719-1.542-3.032-1.542c-1.304,0-2.311,0.508-3.018,1.522     c-0.709,1.015-1.068,2.503-1.076,4.463v0.92c0,1.926,0.354,3.42,1.062,4.482c0.709,1.063,1.728,1.594,3.058,1.594     c1.304,0,2.307-0.512,3.006-1.535c0.7-1.023,1.053-2.516,1.062-4.476V187.1z"/>
			<path style="fill:#03eaf4;" d="M438.375,193.837h8.253v3.123h-12.14v-18.864h3.887V193.837z"/>
		</g>
	</g>
	<g>
		<g>
			<g>
				<path style="fill:#1e3f84;" d="M112.336,116.033c-17.319-6.244-36.525-7.522-54.568-3.631      c-5.355,1.155-10.749,2.825-15.012,6.158c-4.264,3.334-7.219,8.63-6.396,13.866c0.689,4.383,3.909,8.113,7.812,10.449      c3.903,2.336,8.449,3.452,12.963,4.273c14.826,2.694,30.206,2.516,44.961-0.523c5.407-1.114,10.876-2.676,15.246-5.945      C128.398,132.408,124.238,120.324,112.336,116.033z"/>
			</g>
		</g>
		<g>
			<path style="fill:#03eaf4;" d="M52.604,132.785h-2.227l-0.831,4.732h-2.112l0.831-4.732h-2.62V130.8h2.966l0.577-3.3h-2.678     v-1.985h3.035l0.843-4.801h2.1l-0.842,4.801h2.239l0.842-4.801h2.112l-0.842,4.801h2.527v1.985h-2.885l-0.577,3.3h2.585v1.985     h-2.931l-0.831,4.732h-2.112L52.604,132.785z M50.723,130.8h2.228l0.577-3.3h-2.239L50.723,130.8z"/>
			<path style="fill:#03eaf4;" d="M71.199,133.109c0-0.654-0.231-1.156-0.693-1.506c-0.461-0.35-1.292-0.719-2.492-1.108     c-1.2-0.389-2.15-0.771-2.851-1.149c-1.908-1.031-2.862-2.42-2.862-4.166c0-0.908,0.256-1.717,0.767-2.429     c0.512-0.711,1.246-1.267,2.205-1.667s2.033-0.6,3.225-0.6c1.2,0,2.269,0.218,3.208,0.652c0.939,0.435,1.668,1.048,2.187,1.841     c0.519,0.792,0.779,1.693,0.779,2.7h-3.463c0-0.769-0.242-1.368-0.727-1.794c-0.485-0.427-1.165-0.641-2.042-0.641     c-0.847,0-1.505,0.179-1.974,0.537c-0.47,0.358-0.704,0.829-0.704,1.414c0,0.546,0.275,1.004,0.825,1.373     c0.55,0.369,1.36,0.715,2.429,1.038c1.97,0.593,3.405,1.327,4.305,2.204c0.9,0.877,1.351,1.97,1.351,3.277     c0,1.454-0.551,2.595-1.651,3.422c-1.1,0.827-2.581,1.241-4.442,1.241c-1.293,0-2.47-0.237-3.531-0.71     c-1.062-0.473-1.872-1.121-2.43-1.945s-0.837-1.777-0.837-2.862h3.474c0,1.855,1.108,2.781,3.324,2.781     c0.823,0,1.465-0.167,1.926-0.502C70.968,134.176,71.199,133.709,71.199,133.109z"/>
			<path style="fill:#03eaf4;" d="M91.795,129.497c0,1.57-0.254,2.933-0.762,4.091c-0.508,1.158-1.211,2.087-2.112,2.787     l2.793,2.193l-2.205,1.95l-3.578-2.874c-0.407,0.069-0.83,0.104-1.269,0.104c-1.393,0-2.635-0.335-3.728-1.004     c-1.092-0.669-1.938-1.626-2.539-2.868c-0.6-1.242-0.904-2.672-0.911-4.287v-0.831c0-1.654,0.298-3.11,0.894-4.368     c0.597-1.258,1.439-2.224,2.528-2.897c1.089-0.673,2.332-1.01,3.733-1.01c1.401,0,2.644,0.337,3.733,1.01     c1.089,0.673,1.931,1.639,2.528,2.897c0.596,1.258,0.894,2.71,0.894,4.357V129.497z M88.286,128.735     c0-1.762-0.316-3.1-0.946-4.016c-0.631-0.915-1.531-1.373-2.701-1.373c-1.162,0-2.058,0.452-2.688,1.356     c-0.631,0.904-0.951,2.229-0.958,3.975v0.82c0,1.715,0.316,3.046,0.946,3.993c0.631,0.947,1.539,1.42,2.724,1.42     c1.162,0,2.055-0.456,2.678-1.368c0.623-0.911,0.938-2.241,0.946-3.987V128.735z"/>
			<path style="fill:#03eaf4;" d="M98.797,134.736h7.352v2.781H95.334v-16.803h3.462V134.736z"/>
		</g>
	</g>
	<g>
		<path style="fill:#1e3f84;" d="M356.275,413.803c9.053-4.17,17.417-9.679,24.749-16.799    c15.034-14.598,24.137-35.135,24.858-56.077c0.721-20.942-6.948-42.057-20.942-57.654c-7.121-7.938-15.723-14.418-23.054-22.163    c-27.666-29.229-27.61-71.616-52.385-101.768c-10.293-12.528-24.332-21.507-39.073-28.261    c-28.979-13.278-62.162-18.55-93.225-11.396c-39.846,9.178-74.965,44.096-87.369,83.064c-5.978,18.777-5.115,40.242,5.044,57.127    c10.417,17.312,28.888,27.87,43.338,41.992c20.322,19.86,32.361,46.43,47.633,70.392c8.274,12.982,17.833,25.548,30.607,34.141    c14.713,9.898,32.599,13.809,50.167,16.225C296.609,426.751,329.463,426.152,356.275,413.803z"/>
	</g>
	<g>
		<path style="fill:#1c66a3;stroke:#00072d;stroke-linecap:round;stroke-miterlimit:10;" d="M304.69,270.231    c0,3.781-2.053,6.847-4.586,6.847c-2.533,0-4.586-3.065-4.586-6.847s2.053-6.847,4.586-6.847    C302.636,263.384,304.69,266.45,304.69,270.231z"/>
		<g>
			<g>
				<path style="fill:#1c66a3;stroke:#00072d;stroke-linecap:round;stroke-miterlimit:10;" d="M440,110.667      c3.515,4.819,3.754,11.709,0.582,16.75"/>
				<g>
					<g>
						<path style="fill:#1c66a3;stroke:#2a2077;stroke-miterlimit:10;" d="M421.198,125.42c-6.951,0-12.587-6.146-12.587-6.146        s5.635-6.146,12.587-6.146c6.952,0,12.587,6.146,12.587,6.146S428.149,125.42,421.198,125.42z"/>
						<path d="M421.153,125.435c-3.032,0-5.491-2.755-5.491-6.154c0-3.399,2.458-6.154,5.491-6.154c3.032,0,5.491,2.755,5.491,6.154        C426.644,122.68,424.185,125.435,421.153,125.435z" fill="#00072d"/>
					</g>
				</g>
			</g>
			<g>
				
					<line style="fill:#1c66a3;stroke:#00072d;stroke-linecap:round;stroke-miterlimit:10;" x1="396.063" y1="113.391" x2="392.215" y2="123.737"/>
				
					<line style="fill:#1c66a3;stroke:#00072d;stroke-linecap:round;stroke-miterlimit:10;" x1="400.958" y1="113.391" x2="397.11" y2="123.737"/>
			</g>
		</g>
		<g>
			<g>
				<path style="stroke:#00072d;stroke-miterlimit:10;" d="M59.72,274.377c0,0.509-0.422,0.922-0.943,0.922      s-0.943-0.413-0.943-0.922c0-0.509,0.422-0.922,0.943-0.922S59.72,273.868,59.72,274.377z" fill="#00072d"/>
				<path style="stroke:#00072d;stroke-miterlimit:10;" d="M59.72,278.985c0,0.509-0.422,0.922-0.943,0.922      s-0.943-0.413-0.943-0.922c0-0.509,0.422-0.922,0.943-0.922S59.72,278.476,59.72,278.985z" fill="#00072d"/>
			</g>
			<path style="fill:#1c66a3;stroke:#00072d;stroke-linecap:round;stroke-miterlimit:10;" d="M74.329,276.681     c0,3.308-1.899,5.99-4.242,5.99c-2.343,0-4.241-2.682-4.241-5.99c0-3.309,1.899-5.991,4.241-5.991     C72.431,270.691,74.329,273.373,74.329,276.681z"/>
			<path style="fill:#1c66a3;stroke:#00072d;stroke-linecap:round;stroke-miterlimit:10;" d="M87.525,276.681     c0,3.308-1.899,5.99-4.242,5.99c-2.343,0-4.242-2.682-4.242-5.99c0-3.309,1.899-5.991,4.242-5.991     C85.626,270.691,87.525,273.373,87.525,276.681z"/>
		</g>
		<g>
			<polyline style="fill:#1c66a3;stroke:#00072d;stroke-linecap:round;stroke-miterlimit:10;" points="237.784,430.149      228.126,437.293 237.248,443.339    "/>
			
				<line style="fill:#1c66a3;stroke:#00072d;stroke-linecap:round;stroke-miterlimit:10;" x1="266.76" y1="430.698" x2="262.467" y2="442.789"/>
			
				<line style="fill:#1c66a3;stroke:#00072d;stroke-linecap:round;stroke-miterlimit:10;" x1="273.199" y1="430.698" x2="268.906" y2="442.789"/>
			<rect x="244.584" y="432.194" width="10.115" height="8.567" fill="#00072d"/>
		</g>
		<g>
			
				<line style="fill:#1c66a3;stroke:#00072d;stroke-linecap:round;stroke-miterlimit:10;" x1="257.066" y1="100.832" x2="238.085" y2="100.832"/>
			<polyline style="fill:#1c66a3;stroke:#00072d;stroke-linecap:round;stroke-miterlimit:10;" points="261.27,94.076 271.928,101.603      261.862,107.971    "/>
		</g>
	</g>
	<g>
		<path style="fill:#03eaf4;" d="M293.473,162.228h-60.618c-2.007,0-3.634-1.627-3.634-3.635v-17.711    c0-2.007,1.627-3.635,3.634-3.635h60.618c2.007,0,3.635,1.627,3.635,3.635v17.711C297.107,160.6,295.48,162.228,293.473,162.228z"/>
		<g>
			
				<line style="fill:#1c66a3;stroke:#00072d;stroke-linecap:round;stroke-linejoin:round;stroke-miterlimit:10;" x1="278.413" y1="132.799" x2="286.938" y2="119.315"/>
			
				<line style="fill:#1c66a3;stroke:#00072d;stroke-linecap:round;stroke-linejoin:round;stroke-miterlimit:10;" x1="260.302" y1="169.56" x2="267.945" y2="182.007"/>
			
				<line style="fill:#1c66a3;stroke:#00072d;stroke-linecap:round;stroke-linejoin:round;stroke-miterlimit:10;" x1="304.698" y1="150.913" x2="326.021" y2="150.941"/>
			
				<line style="fill:#1c66a3;stroke:#00072d;stroke-linecap:round;stroke-linejoin:round;stroke-miterlimit:10;" x1="215.035" y1="182.525" x2="223.559" y2="169.042"/>
			
				<line style="fill:#1c66a3;stroke:#00072d;stroke-linecap:round;stroke-linejoin:round;stroke-miterlimit:10;" x1="207.698" y1="111.962" x2="227.381" y2="131.128"/>
			
				<line style="fill:#1c66a3;stroke:#00072d;stroke-linecap:round;stroke-linejoin:round;stroke-miterlimit:10;" x1="217.022" y1="223.329" x2="216.504" y2="246.638"/>
			
				<line style="fill:#1c66a3;stroke:#00072d;stroke-linecap:round;stroke-linejoin:round;stroke-miterlimit:10;" x1="347.676" y1="183.959" x2="354.884" y2="170.475"/>
		</g>
		<g>
			<path style="fill:#03eaf4;" d="M308.973,214.285h-60.618c-2.007,0-3.635-1.627-3.635-3.634V192.94     c0-2.007,1.627-3.634,3.635-3.634h60.618c2.007,0,3.634,1.627,3.634,3.634v17.711     C312.608,212.658,310.98,214.285,308.973,214.285z"/>
			<path style="fill:#1c66a3;stroke:#00072d;stroke-linecap:round;stroke-linejoin:round;stroke-miterlimit:10;" d="M311.967,217.289     h-60.618c-2.007,0-3.635-1.627-3.635-3.634v-17.711c0-2.007,1.627-3.635,3.635-3.635h60.618c2.007,0,3.635,1.627,3.635,3.635     v17.711C315.602,215.661,313.975,217.289,311.967,217.289z"/>
		</g>
		<path style="fill:#1c66a3;stroke:#00072d;stroke-linecap:round;stroke-linejoin:round;stroke-miterlimit:10;" d="M296.467,165.231    h-60.618c-2.007,0-3.635-1.627-3.635-3.635v-17.711c0-2.007,1.627-3.634,3.635-3.634h60.618c2.007,0,3.634,1.627,3.634,3.634    v17.711C300.102,163.604,298.474,165.231,296.467,165.231z"/>
		<g>
			<path style="fill:#03eaf4;" d="M389.109,214.539H328.49c-2.007,0-3.635-1.627-3.635-3.634v-17.711     c0-2.007,1.627-3.635,3.635-3.635h60.618c2.007,0,3.634,1.627,3.634,3.635v17.711     C392.743,212.912,391.116,214.539,389.109,214.539z"/>
			<path style="fill:#1c66a3;stroke:#00072d;stroke-linecap:round;stroke-linejoin:round;stroke-miterlimit:10;" d="M393.113,217.543     h-60.618c-2.007,0-3.635-1.627-3.635-3.635v-17.711c0-2.007,1.627-3.635,3.635-3.635h60.618c2.007,0,3.634,1.627,3.634,3.635     v17.711C396.748,215.916,395.121,217.543,393.113,217.543z"/>
			<polygon style="fill:#56b5e8;" points="371.698,210.234 362.486,197.673 350.892,210.234    "/>
		</g>
		<g>
			<path style="fill:#ffb8b8;" d="M394.639,162.364h-60.618c-2.007,0-3.635-1.627-3.635-3.635v-17.711     c0-2.007,1.627-3.635,3.635-3.635h60.618c2.007,0,3.634,1.627,3.634,3.635v17.711     C398.274,160.737,396.647,162.364,394.639,162.364z"/>
			<path style="fill:#1c66a3;stroke:#00072d;stroke-linecap:round;stroke-linejoin:round;stroke-miterlimit:10;" d="M398.644,165.367     h-60.618c-2.007,0-3.635-1.627-3.635-3.634v-17.711c0-2.007,1.627-3.635,3.635-3.635h60.618c2.007,0,3.634,1.627,3.634,3.635     v17.711C402.279,163.74,400.651,165.367,398.644,165.367z"/>
			<polygon style="fill:#56b5e8;" points="375.976,156.183 366.764,143.622 355.17,156.183    "/>
		</g>
		<path style="fill:#56b5e8;" d="M272.023,151.523c0,3.758-3.046,6.804-6.804,6.804c-3.758,0-6.804-3.046-6.804-6.804    s3.046-6.804,6.804-6.804C268.977,144.719,272.023,147.765,272.023,151.523z"/>
		<g>
			<path style="fill:#03eaf4;" d="M267.215,275.661h-60.618c-2.007,0-3.635-1.627-3.635-3.634v-17.711     c0-2.007,1.627-3.634,3.635-3.634h60.618c2.007,0,3.634,1.627,3.634,3.634v17.711     C270.85,274.034,269.223,275.661,267.215,275.661z"/>
			<path style="fill:#1c66a3;stroke:#00072d;stroke-linecap:round;stroke-linejoin:round;stroke-miterlimit:10;" d="M271.22,278.665     h-60.618c-2.007,0-3.635-1.627-3.635-3.635V257.32c0-2.007,1.627-3.634,3.635-3.634h60.618c2.007,0,3.634,1.627,3.634,3.634     v17.711C274.854,277.038,273.227,278.665,271.22,278.665z"/>
			<path style="fill:#56b5e8;" d="M236.551,271.748c3.677-0.092,6.632-3.095,6.632-6.795c0-3.7-2.954-6.703-6.632-6.795V271.748z"/>
		</g>
		<g>
			<path style="fill:#03eaf4;" d="M363.921,112.734H293.78c-2.007,0-3.635-1.627-3.635-3.634V87.885     c0-2.007,1.627-3.634,3.635-3.634h70.142c2.007,0,3.634,1.627,3.634,3.634V109.1     C367.556,111.107,365.929,112.734,363.921,112.734z"/>
			<path style="fill:#1c66a3;stroke:#00072d;stroke-linecap:round;stroke-linejoin:round;stroke-miterlimit:10;" d="M368.488,116.159     h-70.142c-2.007,0-3.635-1.627-3.635-3.634V91.309c0-2.007,1.627-3.635,3.635-3.635h70.142c2.007,0,3.634,1.627,3.634,3.635     v21.215C372.122,114.532,370.495,116.159,368.488,116.159z"/>
			<circle style="fill:#56b5e8;" cx="330.154" cy="100.614" r="7.758"/>
		</g>
		<g>
			<path style="fill:#03eaf4;" d="M224.806,214.285h-60.618c-2.007,0-3.635-1.627-3.635-3.634V192.94     c0-2.007,1.627-3.634,3.635-3.634h60.618c2.007,0,3.635,1.627,3.635,3.634v17.711     C228.44,212.658,226.813,214.285,224.806,214.285z"/>
			<path style="fill:#1c66a3;stroke:#00072d;stroke-linecap:round;stroke-linejoin:round;stroke-miterlimit:10;" d="M227.8,217.289     h-60.618c-2.007,0-3.634-1.627-3.634-3.634v-17.711c0-2.007,1.627-3.635,3.634-3.635H227.8c2.007,0,3.634,1.627,3.634,3.635     v17.711C231.435,215.661,229.807,217.289,227.8,217.289z"/>
			<rect x="185.506" y="197.823" style="fill:#56b5e8;" width="20.935" height="9.42"/>
		</g>
	</g>
	<g>
		<path style="fill:#ffb8b8;" d="M96.256,412.98l-21.423-10.569c-0.501,6.199-0.58,12.396-0.228,18.531    c0.417,7.271-0.361,19.539,5.224,19.943c3.908,0.283,11.187-0.429,15.134-0.429c-0.46-4.848-0.221-9.799,0.308-14.783    C95.677,421.845,95.977,417.411,96.256,412.98z"/>
		<path style="fill:#3477b5;" d="M74.079,447.583c-0.008-0.064-0.014-0.128-0.019-0.191c-0.279-3.405-0.661-6.551-0.611-10.005    c0.035-2.455-0.093-5.348,0.821-7.653c6.76,0.392,13.638-0.14,20.463,0.324c1.362,0.092,1.632,3.099,2.468,3.941    c1.658,1.669,4.893,2.545,7.088,3.157c4.581,1.278,9.285,2.035,13.085,5.159c1.976,1.625,6.504,7.533,2.73,9.493    c-1.537,0.799-4.597,0.069-6.24-0.007c-2.716-0.125-5.431-0.274-8.144-0.446c-10.282-0.654-20.542-1.65-30.756-2.998    c-0.241-0.032-0.5-0.073-0.671-0.245C74.156,447.973,74.105,447.78,74.079,447.583z"/>
		<path style="fill:#1c66a3;stroke:#00072d;stroke-linecap:round;stroke-linejoin:round;stroke-miterlimit:10;" d="M73.769,444.433    c16.051,1.248,32.072,2.886,48.044,4.913"/>
		<path style="fill:#1c66a3;stroke:#00072d;stroke-linecap:round;stroke-linejoin:round;stroke-miterlimit:10;" d="M108.796,441.131    c1.145-0.469,2.14-1.295,2.813-2.333c0.153-0.236,0.294-0.506,0.252-0.784c-0.064-0.43-0.56-0.684-0.993-0.64    c-0.433,0.044-0.811,0.3-1.168,0.549c-0.895,0.623-1.789,1.246-2.684,1.869c-0.255,0.177-0.523,0.36-0.831,0.396    c-0.308,0.036-0.664-0.131-0.729-0.434c-0.013-0.493,0.336-0.92,0.714-1.237c0.377-0.317,0.811-0.586,1.082-0.997    c0.271-0.412,0.311-1.036-0.074-1.344c-0.243-0.194-0.586-0.209-0.89-0.146c-1.501,0.307-2.306,2.115-3.79,2.495    c-0.145,0.037-0.306,0.058-0.439-0.01c-0.237-0.121-0.268-0.452-0.201-0.71c0.264-1.012,1.47-1.649,1.514-2.694    c0.007-0.176-0.024-0.362-0.132-0.502c-0.207-0.271-0.613-0.284-0.943-0.197c-1.43,0.377-2.124,1.957-2.623,3.349"/>
		<path style="fill:#1c66a3;stroke:#00072d;stroke-linecap:round;stroke-linejoin:round;stroke-miterlimit:10;" d="M79.493,440.56    c0.986,0.459,2.266,0.164,2.952-0.68c0.686-0.844,0.712-2.158,0.06-3.029c-0.186-0.249-0.426-0.465-0.716-0.576    c-0.383-0.147-0.811-0.097-1.216-0.029c-0.792,0.132-1.626,0.354-2.157,0.957c-0.459,0.521-0.612,1.293-0.386,1.95    c0.226,0.656,0.822,1.171,1.504,1.299"/>
		<path style="fill:#ffb8b8;" d="M162.273,412.238l-21.423-10.569c-0.501,6.199-0.58,12.396-0.228,18.531    c0.417,7.271-0.361,19.538,5.224,19.943c3.908,0.283,11.187-0.429,15.134-0.429c-0.46-4.848-0.22-9.799,0.308-14.783    C161.693,421.103,161.993,416.669,162.273,412.238z"/>
		<path style="fill:#3477b5;" d="M140.095,446.841c-0.008-0.064-0.014-0.128-0.019-0.191c-0.279-3.405-0.661-6.551-0.611-10.005    c0.035-2.455-0.093-5.348,0.821-7.653c6.76,0.392,13.638-0.14,20.463,0.324c1.362,0.092,1.632,3.099,2.468,3.941    c1.658,1.669,4.893,2.545,7.088,3.157c4.581,1.278,9.286,2.035,13.085,5.159c1.976,1.625,6.504,7.532,2.73,9.493    c-1.537,0.798-4.597,0.069-6.24-0.007c-2.716-0.125-5.431-0.274-8.144-0.446c-10.282-0.654-20.542-1.65-30.756-2.998    c-0.241-0.032-0.5-0.073-0.671-0.245C140.173,447.231,140.121,447.038,140.095,446.841z"/>
		<g>
			<path style="fill:#ffb8b8;" d="M145.747,94.496c0.14,1.043,0.256,2.094,0.304,3.156c0.452,9.946,1.665,19.842,1.832,29.83     c0.119,7.12,0.368,22.285,11,21.733c2.26-0.117,4.381-1.082,6.409-2.088c2.025-1.005,4.156-2.203,5.11-4.252     c0.979-2.101,0.477-4.559-0.043-6.818c-1.546-6.716-3.091-13.432-4.637-20.147c-1.405-6.104-3.481-12.161-4.165-18.4     c-0.176-1.604-0.031-5.987-2.153-6.477c-0.574-0.133-1.217,0.132-1.532,0.63c-0.077-0.548-0.157-1.109-0.413-1.6     c-0.256-0.491-0.727-0.907-1.28-0.941c-0.872-0.054-1.504,0.785-1.962,1.529c-0.115-0.59-0.234-1.19-0.52-1.718     c-0.286-0.528-0.771-0.983-1.363-1.082c-0.656-0.109-1.324,0.244-1.751,0.753c-0.427,0.51-0.652,1.156-0.83,1.796     c-0.268,0.964-0.186,3.173-0.842,3.844c-0.792-0.871-0.865-2.564-0.808-3.7c0.066-1.306,0.385-2.585,0.716-3.85     c0.203-0.778,0.387-1.687-0.112-2.319c-2.138-2.701-3.861,2.742-3.744,4.204C145.119,90.538,145.479,92.503,145.747,94.496z"/>
			<path style="fill:#3477b5;" d="M167.088,132.402c-6.445,1.463-12.893,2.906-19.459,3.616c3.654,15.446,5.181,29.662,4.37,44.249     c-0.542,9.758-2.95,15.956-9.89,22.74c-0.654,0.639-0.754,1.696-0.789,2.61c-0.092,2.399,2.802,2.884,4.529,3.741     c5.031,2.497,9.913,5.283,14.843,7.957l7.735,3.753c15.233-37.785,9.202-63.631,2.768-89.174     C169.828,132.07,168.458,132.235,167.088,132.402z"/>
			<path style="fill:#03eaf4;" d="M193.123,101.866h-90.392c-2.007,0-3.635-1.627-3.635-3.634V75.063     c0-2.007,1.627-3.635,3.635-3.635h90.392c2.007,0,3.635,1.627,3.635,3.634v23.168     C196.757,100.239,195.13,101.866,193.123,101.866z"/>
			<path style="fill:#1c66a3;stroke:#00072d;stroke-linecap:round;stroke-linejoin:round;stroke-miterlimit:10;" d="M198.884,105.525     h-90.392c-2.007,0-3.634-1.627-3.634-3.634V78.723c0-2.007,1.627-3.634,3.634-3.634h90.392c2.007,0,3.635,1.627,3.635,3.634     v23.168C202.518,103.898,200.891,105.525,198.884,105.525z"/>
			<g>
				<defs fill="#00072d">
					<path id="SVGID_1_" d="M167.088,132.402c-6.445,1.463-12.893,2.906-19.459,3.616c3.654,15.446,5.181,29.662,4.37,44.249       c-0.542,9.758-2.95,15.956-9.89,22.74c-0.654,0.639-0.754,1.696-0.789,2.61c-0.092,2.399,2.802,2.884,4.529,3.741       c5.031,2.497,9.913,5.283,14.843,7.957l7.735,3.753c15.233-37.785,9.202-63.631,2.768-89.174       C169.828,132.07,168.458,132.235,167.088,132.402z" fill="#00072d"/>
				</defs>
				<clipPath id="SVGID_00000123419519742098951960000001842482332919059896_" fill="#00072d">
					<use xlink:href="#SVGID_1_" style="overflow:visible;" fill="#00072d"/>
				</clipPath>
				<path style="clip-path:url(#SVGID_00000123419519742098951960000001842482332919059896_);" d="M176.33,179.494      c3.02,0.266,7.949-1.874,7.409-5.513c-0.087-0.587-0.381-1.119-0.669-1.637c-1.687-3.032-3.732-5.567-7.504-3.118      c-1.542,1.001-2.559,2.675-3.072,4.44c-0.241,0.83-0.381,1.712-0.208,2.558c0.37,1.811,2.174,3.095,4.014,3.267      C176.311,179.493,176.321,179.494,176.33,179.494z" fill="#00072d"/>
			</g>
			<g>
				<path d="M97.892,301.559c0.097-0.333,0.194-0.666,0.291-0.999c2.916-10.018,5.864-20.027,8.749-30.054      c1.816-6.312,0.637-13.531,2.339-19.265c3.533-11.904,31.836-6.947,42.28-8.04c5.471-0.573,14.813-3.35,19.432,1.013      c4.134,3.905,4.272,13.661,5.231,19.007c4.549,25.333,2.961,51.316,1.357,77.004c-1.076,17.244-2.153,34.488-3.229,51.732      c-0.585,9.374-0.451,19.094-2.27,28.25c-13.481,2.596-29.197,0.95-42.774-0.568c2.764-21.508,5.528-43.016,8.292-64.524      c2.611-20.314,5.463-40.711,6.313-61.21c-2.095,9.944-6.093,19.664-8.932,29.446c-3.218,11.087-6.199,22.242-9.508,33.303      c-1.692,5.656-16.877,63.871-19.06,63.72c-14.062-1.044-28.125-2.088-42.187-3.132C75.442,378.68,86.667,340.119,97.892,301.559      z" fill="#00072d"/>
				<path style="fill:#3477b5;" d="M163.404,199.727c-4.513-2.754-9.462-4.325-14.079-5.17c-5.735-1.049-11.209-0.985-17.659-0.741      c-6.967,0.263-11.573,2.037-16.373,7.36c-5.681,6.298-7.358,14.042-7.951,22.242c-0.724,10.004-1.449,20.008-2.174,30.013      c23.57-0.674,47.877,0.254,71.303-2.173c2.925-0.304-4.854-37.607-5.496-40.751c-0.413-2.022-0.852-4.089-1.939-5.843      c-1.123-1.813-2.859-3.158-4.648-4.319C164.06,200.134,163.732,199.927,163.404,199.727z"/>
				<g>
					<path d="M153.191,169.261c0.084,0.841,0.101,1.688,0.039,2.537c-0.048,0.665-0.163,1.373-0.62,1.859       c-2.056,2.189-6.587-5.374-7.388-6.733c-1.149-1.951-2.379-4.676-1.863-6.991c0.271-1.216,1.316-2.457,2.658-2.519       c1.47-0.069,3.014,1.69,3.738,2.788C151.549,162.92,152.868,166.041,153.191,169.261z" fill="#00072d"/>
					<path style="fill:#ffb8b8;" d="M137.276,163.528c-0.442,0.211-0.876,0.435-1.299,0.669c-2.304,1.275-4.85,2.929-5.285,5.745       c-0.203,1.314-0.277,2.648-0.278,3.977c-0.001,2.68,0.32,5.347,0.641,8.004c0.279,2.312,0.559,4.624,0.838,6.936       c0.124,1.023,0.78,4.058-0.372,4.71c-0.177,0.1-0.389,0.107-0.592,0.123c-0.405,0.032-0.807,0.111-1.194,0.235       c0.046-0.015,1.275,1.508,1.464,1.646c0.533,0.391,1.007,0.86,1.535,1.266c1.152,0.886,2.453,1.579,3.838,2.023       c2.697,0.864,5.694,0.776,8.326-0.271c0.812-0.323,1.663-0.608,2.382-1.119c0.622-0.442,1.146-1.055,1.54-1.733       c0.34-0.586,0.083-1.318-0.522-1.622c-0.23-0.115-0.449-0.249-0.649-0.412c-0.411-0.334-0.739-0.817-0.794-1.354       c-0.08-0.786-0.239-2.34,0.471-2.804c0.748-0.49,2.143-0.497,3.01-0.905c3.111-1.464,3.739-4.104,3.564-7.335       c-0.178-3.277-0.807-6.529-1.865-9.636c-0.667-1.96-1.506-3.868-1.992-5.881c-0.19-0.788-0.339-1.618-0.823-2.268       c-0.701-0.94-1.544-0.859-2.563-0.99c-0.974-0.126-1.885-0.493-2.897-0.539C141.507,161.891,139.29,162.57,137.276,163.528z"/>
					<path d="M109.469,190.349c1.081,2.073,2.392,3.954,3.904,5.733c1.585,1.866,2.954,1.413,5.14,0.522       c3.615-1.474,7.615-1.995,11.487-1.495c0.515,0.066,1.042,0.15,1.55,0.038c1.467-0.324,1.717-2.077,2.083-3.29       c0.976-3.228,0.498-6.44,0.927-9.741c0.185-1.426,0.621-2.867,1.394-4.089c0.712-1.124,1.823-1.656,2.635-2.635       c1.881-2.266-0.632-5.196,1.03-7.187c0.791-0.947,2.303-1.584,3.438-1.966c2.464-0.83,5.891-0.934,7.334-3.463       c0.988-1.731,0.445-4.048-0.899-5.519c-1.345-1.471-3.326-2.212-5.294-2.531c-4.448-0.722-9.181,0.549-12.669,3.401       c-1.89,1.546-3.324,3.742-5.546,4.768c-2.422,1.119-5.089,1.711-7.324,3.22c-1.183,0.798-2.193,1.822-3.284,2.742       c-2.953,2.491-6.841,5.256-8.184,9.046c-1.187,3.347-0.17,7.068,1.258,10.32C108.764,188.937,109.103,189.649,109.469,190.349z       " fill="#00072d"/>
					<path style="fill:#ffb8b8;" d="M132.525,177.86c0.612,2.333,4.532,4.06,5.353,1.027c0.473-1.747-0.344-4.672-2.446-4.899       C133.416,173.771,132.058,176.082,132.525,177.86z"/>
					<path style="fill:#1c66a3;stroke:#00072d;stroke-linecap:round;stroke-linejoin:round;stroke-miterlimit:10;" d="M133.248,176.646       c0.113-0.309,0.395-0.53,0.7-0.654c0.544-0.221,1.18-0.168,1.707,0.092c0.526,0.26,0.944,0.714,1.211,1.237"/>
					<g>
						<defs fill="#00072d">
							<path id="SVGID_00000103229816293198527620000008604197431368972683_" d="M130.043,182.383         c0.543,3.095,1.117,6.188,1.816,9.245c0.148,0.646,0.118,1.42-0.385,1.851c-0.414,0.355-1.013,0.366-1.558,0.359         c1.579,2.352,3.959,4.159,6.657,5.023c2.697,0.864,5.694,0.776,8.326-0.271c0.812-0.323,1.663-0.608,2.382-1.119         c0.68-0.483,1.284-1.279,1.696-2.002c0.036-0.063,0.071-0.14,0.038-0.204c-0.03-0.057-0.1-0.077-0.163-0.093         c-0.677-0.166-1.371-0.497-1.694-1.115c-0.18-0.344-0.226-0.742-0.255-1.129c-0.059-0.796-0.06-1.596-0.003-2.392         c0.02-0.272-0.056-0.763,0.267-0.812c0.238-0.036,0.596,0.106,0.844,0.125c1.015,0.077,2.031-0.14,2.921-0.635         c2.288-1.272,3.522-3.996,3.8-6.505c0.589-5.325-2.057-14.335-6.618-17.676c-2.797-2.049-7.438-2.128-10.643-1.095         c-3.302,1.065-7.743,3.599-8.57,7.221c-0.376,1.648-0.134,3.367,0.124,5.038         C129.342,178.264,129.682,180.325,130.043,182.383z" fill="#00072d"/>
						</defs>
						<clipPath id="SVGID_00000007395661170764496410000000187337270285270179_" fill="#00072d">
							<use xlink:href="#SVGID_00000103229816293198527620000008604197431368972683_" style="overflow:visible;" fill="#00072d"/>
						</clipPath>
						<path style="clip-path:url(#SVGID_00000007395661170764496410000000187337270285270179_);" d="M149.371,189.991        c-1.178,0.092-2.382-0.159-3.425-0.714c-0.542-0.289-1.07-0.667-1.682-0.713c-0.222-0.017-0.476,0.029-0.599,0.214        c-0.196,0.295,0.081,0.687,0.391,0.859c0.31,0.172,0.691,0.273,0.878,0.574c0.176,0.283,0.124,0.659,0.278,0.955        c0.204,0.392,0.691,0.521,1.123,0.615c0.972,0.212,1.947,0.453,2.841,0.888" fill="#00072d"/>
					</g>
				</g>
				<g>
					<path style="fill:#ffb8b8;" d="M107.574,95.009c-0.374,1.317-0.696,2.652-1.05,3.975c-2.798,10.471-6.172,20.816-9.267,31.224       c-0.441,1.483-0.882,2.966-1.325,4.449c-1.014,3.402-2.03,7.053-0.961,10.438c1.197,3.79,4.934,6.433,8.862,7.036       c2.605,0.4,5.262,0.001,7.736-0.861c3.019-1.053,3.575-1.896,4.476-4.864c1.472-4.851,0.526-10.989,0.955-16.085       c0.484-5.739,1.29-11.45,2.411-17.099c1.258-6.337,2.494-12.667,4.831-18.721c0.206-0.533,0.42-1.074,0.469-1.643       c0.048-0.57-0.095-1.185-0.512-1.576c-0.648-0.609-1.813-0.324-2.27,0.377c0.292-0.449,0.594-0.925,0.624-1.459       c0.026-0.469,0.057-1.113-0.242-1.502c-0.749-0.973-2.373,0.293-2.995,0.788c0.538-0.677,1.334-1.717,1.148-2.644       c-0.091-0.452-0.44-0.859-0.891-0.959c-0.418-0.092-0.848,0.075-1.224,0.281c-1.183,0.65-2.29,1.81-3.179,2.814       c-1.337,1.509-2.54,3.137-3.589,4.859c0.432-2.677,1.756-4.84,3.67-6.697c0.576-0.558,1.519-0.934,1.067-1.927       c-0.247-0.542-0.93-0.785-1.514-0.672c-0.812,0.157-1.807,0.987-2.413,1.534c-1.858,1.676-2.927,3.671-3.835,5.975       C108.173,93.017,107.858,94.008,107.574,95.009z"/>
					<path style="fill:#1c66a3;stroke:#00072d;stroke-linecap:round;stroke-linejoin:round;stroke-miterlimit:10;" d="M111.664,97.977"/>
					<path style="fill:#1c66a3;stroke:#00072d;stroke-linecap:round;stroke-linejoin:round;stroke-miterlimit:10;" d="M113.131,93.5"/>
				</g>
			</g>
			<path style="fill:#3477b5;" d="M119.371,173.77c-2.809-13.29-2.441-27.063-0.662-40.546c-0.074,0.012-0.148,0.025-0.222,0.036     c-1.798,0.281-3.597,0.554-5.397,0.82c-6.966-0.407-12.222-2.271-18.597-1.125c-5.687,26.865-1.11,60.801,13.385,84.132     c4.071,6.552,9.25,12.969,16.51,15.577c6.38-7.28,11.202-13.147,15.782-21.675C129.193,201.563,122.363,187.925,119.371,173.77z"/>
			<rect x="138.175" y="82.249" style="fill:#56b5e8;" width="31.847" height="9.131"/>
			<path style="fill:#1c66a3;stroke:#2a2077;stroke-linecap:round;stroke-linejoin:round;stroke-miterlimit:10;" d="M122.275,91.313     c-1.592,2.056-2.808,4.402-3.569,6.888"/>
			<path style="fill:#1c66a3;stroke:#2a2077;stroke-linecap:round;stroke-linejoin:round;stroke-miterlimit:10;" d="M119.585,89.208     c-2.099,2.25-4.263,4.608-5.166,7.55"/>
			<path style="fill:#1c66a3;stroke:#2a2077;stroke-linecap:round;stroke-linejoin:round;stroke-miterlimit:10;" d="M111.553,93.682     c-0.096,0.503-0.255,0.994-0.472,1.458"/>
			<path style="fill:#ffb8b8;" d="M106.081,90.857c0.196-0.319,0.441-0.601,0.759-0.794c0.55-0.333,1.364-0.298,1.741,0.222     c0.355,0.489,0.211,1.164,0.076,1.753c-0.367,1.601-0.461,3.241-0.473,4.879c-0.012,1.54,0.281,2.971,0.072,4.534     c-0.077,0.579-0.23,1.216-0.716,1.54c-0.444,0.297-1.063,0.231-1.513-0.056c-0.451-0.287-0.755-0.757-0.97-1.246     c-0.541-1.233-0.583-2.625-0.498-3.969C104.693,95.625,104.962,92.682,106.081,90.857z"/>
			<path style="fill:#1c66a3;stroke:#2a2077;stroke-linecap:round;stroke-linejoin:round;stroke-miterlimit:10;" d="M108.851,91.265     c-0.96,1.927-1.478,4.109-1.899,6.217"/>
			<path style="fill:#1c66a3;stroke:#00072d;stroke-linecap:round;stroke-linejoin:round;stroke-miterlimit:10;" d="M147.039,181.347     c1.116,1.184,2.926,1.659,4.48,1.175c0.358-0.111,0.718-0.282,0.936-0.587"/>
			<path style="fill:#1c66a3;stroke:#00072d;stroke-linecap:round;stroke-linejoin:round;stroke-miterlimit:10;" d="M108.129,216.669     c0.481,1.435,0.961,2.87,1.442,4.306"/>
			<path style="fill:#1c66a3;stroke:#00072d;stroke-linecap:round;stroke-linejoin:round;stroke-miterlimit:10;" d="M171.76,211.362     c-1.155,2.573-2.032,5.271-2.608,8.032"/>
			<path d="M97.089,171.192c0.42-1.372,1.492-2.632,2.906-2.877c1.467-0.254,2.965,0.665,3.715,1.951     c0.75,1.286,0.86,2.857,0.675,4.334c-0.289,2.303-2.27,6.197-5.237,5.1C96.519,178.729,96.431,173.342,97.089,171.192z" fill="#00072d"/>
		</g>
		<path style="fill:#1c66a3;stroke:#00072d;stroke-linecap:round;stroke-linejoin:round;stroke-miterlimit:10;" d="M139.785,443.691    c16.051,1.248,32.072,2.886,48.044,4.913"/>
		<path style="fill:#1c66a3;stroke:#00072d;stroke-linecap:round;stroke-linejoin:round;stroke-miterlimit:10;" d="M174.812,440.389    c1.145-0.469,2.14-1.295,2.813-2.333c0.153-0.236,0.294-0.506,0.252-0.784c-0.065-0.43-0.561-0.684-0.993-0.64    c-0.433,0.044-0.811,0.3-1.168,0.549c-0.895,0.623-1.789,1.246-2.684,1.869c-0.255,0.177-0.523,0.36-0.832,0.396    c-0.308,0.036-0.664-0.131-0.728-0.434c-0.013-0.492,0.336-0.92,0.714-1.236s0.811-0.586,1.082-0.997    c0.271-0.412,0.311-1.037-0.074-1.344c-0.243-0.194-0.586-0.209-0.89-0.146c-1.501,0.307-2.306,2.115-3.79,2.495    c-0.145,0.037-0.306,0.058-0.439-0.01c-0.237-0.121-0.268-0.452-0.201-0.71c0.264-1.012,1.47-1.649,1.514-2.694    c0.007-0.176-0.024-0.362-0.131-0.502c-0.207-0.271-0.613-0.284-0.943-0.197c-1.43,0.377-2.124,1.957-2.623,3.349"/>
		<path style="fill:#1c66a3;stroke:#00072d;stroke-linecap:round;stroke-linejoin:round;stroke-miterlimit:10;" d="M145.51,439.818    c0.986,0.459,2.266,0.164,2.952-0.68c0.686-0.844,0.712-2.158,0.06-3.029c-0.186-0.248-0.426-0.465-0.716-0.576    c-0.383-0.147-0.811-0.096-1.216-0.029c-0.792,0.132-1.626,0.354-2.157,0.957c-0.459,0.521-0.611,1.293-0.385,1.95    s0.822,1.171,1.504,1.299"/>
		<path style="fill:#1c66a3;stroke:#3477b5;stroke-linecap:round;stroke-linejoin:round;stroke-miterlimit:10;" d="M143.454,297.651    c1.835-7.982,3.063-16.103,3.67-24.271"/>
		<path style="fill:#1c66a3;stroke:#00072d;stroke-linecap:round;stroke-linejoin:round;stroke-miterlimit:10;" d="M149.111,194.253    c-0.68,2.102-1.916,3.4-3.489,4.186c-3,1.5-6.634,1.529-9.828,0.505c-0.638-0.204-1.263-0.455-1.847-0.783    c-1.547-0.87-2.743-2.243-3.835-3.642"/>
	</g>
	
		<line style="fill:#1c66a3;stroke:#00072d;stroke-linecap:round;stroke-linejoin:round;stroke-miterlimit:10;" x1="61.626" y1="451.76" x2="456.33" y2="451.76"/>
	<g>
		<g>
			<path style="fill:#56b5e8;" d="M244.329,307.193H208.72c-2.229,0-4.036,1.767-4.036,3.947l0,0c0,2.18,1.807,3.947,4.036,3.947     h35.609c2.229,0,4.036-1.767,4.036-3.947l0,0C248.365,308.959,246.558,307.193,244.329,307.193z"/>
			<path style="fill:#3477b5;" d="M287.097,307.193h-26.433c-2.108,0-3.991,1.507-4.191,3.559c-0.23,2.354,1.657,4.334,4.017,4.334     h26.606c2.229,0,4.036-1.767,4.036-3.947l0,0C291.133,308.959,289.326,307.193,287.097,307.193z"/>
			<path style="fill:#56b5e8;" d="M298.425,311.139L298.425,311.139c0,2.18,1.807,3.947,4.036,3.947h77.673     c2.229,0,4.036-1.767,4.036-3.947l0,0c0-2.18-1.807-3.947-4.036-3.947h-77.673C300.232,307.193,298.425,308.959,298.425,311.139z     "/>
			<path style="fill:#3477b5;" d="M422.198,307.193h-24.823c-2.229,0-4.036,1.767-4.036,3.947l0,0c0,2.18,1.807,3.947,4.036,3.947     h24.823c2.229,0,4.036-1.767,4.036-3.947l0,0C426.234,308.959,424.427,307.193,422.198,307.193z"/>
			<path style="fill:#3477b5;" d="M397.391,326.622h-70.662c-2.229,0-4.036,1.767-4.036,3.947l0,0c0,2.18,1.807,3.947,4.036,3.947     h70.662c2.229,0,4.036-1.767,4.036-3.947l0,0C401.427,328.389,399.62,326.622,397.391,326.622z"/>
			<path style="fill:#3477b5;" d="M408.266,330.569L408.266,330.569c0,2.18,1.807,3.947,4.036,3.947h15.045     c2.229,0,4.036-1.767,4.036-3.947l0,0c0-2.18-1.807-3.947-4.036-3.947h-15.045C410.073,326.622,408.266,328.389,408.266,330.569z     "/>
			<path style="fill:#56b5e8;" d="M311.355,326.622h-8.894c-2.229,0-4.036,1.767-4.036,3.947l0,0c0,2.18,1.807,3.947,4.036,3.947     h8.894c2.229,0,4.036-1.767,4.036-3.947l0,0C315.392,328.389,313.585,326.622,311.355,326.622z"/>
			<path style="fill:#ffb8b8;" d="M285.456,345.788h-8.894c-2.229,0-4.036,1.767-4.036,3.947l0,0c0,2.18,1.807,3.947,4.036,3.947     h8.894c2.229,0,4.036-1.767,4.036-3.947l0,0C289.492,347.555,287.685,345.788,285.456,345.788z"/>
			<path style="fill:#56b5e8;" d="M186.978,330.569L186.978,330.569c0,2.18,1.767,3.947,3.947,3.947h77.574     c2.18,0,3.947-1.767,3.947-3.947l0,0c0-2.18-1.767-3.947-3.947-3.947h-77.574C188.745,326.622,186.978,328.389,186.978,330.569z"/>
			<path style="fill:#3477b5;" d="M169.815,326.622h-1.095c-2.229,0-4.036,1.767-4.036,3.947l0,0c0,2.18,1.807,3.947,4.036,3.947     h1.095c2.229,0,4.036-1.767,4.036-3.947l0,0C173.851,328.389,172.044,326.622,169.815,326.622z"/>
			<path style="fill:#ffb8b8;" d="M164.382,349.998L164.382,349.998c0,2.18,2.158,3.947,4.82,3.947h85.035     c2.662,0,4.82-1.767,4.82-3.947l0,0c0-2.18-2.158-3.947-4.82-3.947h-85.035C166.54,346.052,164.382,347.819,164.382,349.998z"/>
			<path style="fill:#56b5e8;" d="M303.134,349.998L303.134,349.998c0,2.18,1.295,3.947,2.893,3.947h83.879     c1.598,0,2.893-1.767,2.893-3.947l0,0c0-2.18-1.295-3.947-2.893-3.947h-83.879C304.429,346.052,303.134,347.819,303.134,349.998z     "/>
			<path style="fill:#56b5e8;" d="M401.441,349.998L401.441,349.998c0,2.18,1.807,3.947,4.036,3.947h24.738     c2.229,0,4.036-1.767,4.036-3.947l0,0c0-2.18-1.807-3.947-4.036-3.947h-24.738C403.248,346.052,401.441,347.819,401.441,349.998z     "/>
			<path style="fill:#ffb8b8;" d="M329.164,369.428L329.164,369.428c0,2.18,1.807,3.947,4.036,3.947h87.919     c2.229,0,4.036-1.767,4.036-3.947l0,0c0-2.18-1.807-3.947-4.036-3.947H333.2C330.971,365.481,329.164,367.248,329.164,369.428z"/>
			<path style="fill:#56b5e8;" d="M186.255,369.428L186.255,369.428c0,2.18,1.807,3.947,4.036,3.947h67.426     c2.229,0,4.036-1.767,4.036-3.947l0,0c0-2.18-1.807-3.947-4.036-3.947h-67.426C188.062,365.481,186.255,367.248,186.255,369.428z     "/>
			<path style="fill:#3477b5;" d="M266.607,369.428L266.607,369.428c0,2.18,1.807,3.947,4.036,3.947h41.002     c2.229,0,4.036-1.767,4.036-3.947l0,0c0-2.18-1.807-3.947-4.036-3.947h-41.002C268.415,365.481,266.607,367.248,266.607,369.428z     "/>
			<path style="fill:#56b5e8;" d="M216.454,388.858L216.454,388.858c0,2.18,1.807,3.947,4.036,3.947h6.488     c2.229,0,4.036-1.767,4.036-3.947l0,0c0-2.18-1.807-3.947-4.036-3.947h-6.488C218.262,384.911,216.454,386.678,216.454,388.858z"/>
			<path style="fill:#3477b5;" d="M206.548,388.858c0-2.18-1.767-3.947-3.947-3.947h-31.008c-2.229,0-4.036,1.767-4.036,3.947     c0,2.18,1.807,3.947,4.036,3.947h31.008C204.781,392.804,206.548,391.037,206.548,388.858L206.548,388.858z"/>
			<path style="fill:#56b5e8;" d="M236.408,388.858L236.408,388.858c0,2.18,1.807,3.947,4.036,3.947h5.409     c2.229,0,4.036-1.767,4.036-3.947l0,0c0-2.18-1.807-3.947-4.036-3.947h-5.409C238.215,384.911,236.408,386.678,236.408,388.858z"/>
			<path style="fill:#ffb8b8;" d="M255.283,388.858L255.283,388.858c0,2.18,1.807,3.947,4.036,3.947h52.866     c2.229,0,4.036-1.767,4.036-3.947l0,0c0-2.18-1.807-3.947-4.036-3.947h-52.866C257.09,384.911,255.283,386.678,255.283,388.858z"/>
			<path style="fill:#3477b5;" d="M324.85,388.858L324.85,388.858c0,2.18,1.807,3.947,4.036,3.947h19.431     c2.229,0,4.036-1.767,4.036-3.947l0,0c0-2.18-1.807-3.947-4.036-3.947h-19.431C326.657,384.911,324.85,386.678,324.85,388.858z"/>
			<path style="fill:#56b5e8;" d="M364.217,388.858L364.217,388.858c0,2.18,1.807,3.947,4.036,3.947h19.97     c2.229,0,4.036-1.767,4.036-3.947l0,0c0-2.18-1.807-3.947-4.036-3.947h-19.97C366.024,384.911,364.217,386.678,364.217,388.858z"/>
			<path style="fill:#56b5e8;" d="M406.281,388.858L406.281,388.858c0,2.18,1.807,3.947,4.036,3.947h10.802     c2.229,0,4.036-1.767,4.036-3.947l0,0c0-2.18-1.807-3.947-4.036-3.947h-10.802C408.088,384.911,406.281,386.678,406.281,388.858z     "/>
			<path style="fill:#3477b5;" d="M211.943,408.287L211.943,408.287c0,2.18,1.807,3.947,4.036,3.947h49.769     c2.229,0,4.036-1.767,4.036-3.947l0,0c0-2.18-1.807-3.947-4.036-3.947h-49.769C213.75,404.341,211.943,406.108,211.943,408.287z"/>
			<path style="fill:#3477b5;" d="M281.168,408.287L281.168,408.287c0,2.18,1.807,3.947,4.036,3.947h7.566     c2.229,0,4.036-1.767,4.036-3.947l0,0c0-2.18-1.807-3.947-4.036-3.947h-7.566C282.975,404.341,281.168,406.108,281.168,408.287z"/>
			<path style="fill:#56b5e8;" d="M312.791,408.287L312.791,408.287c0,2.18,1.807,3.947,4.036,3.947h37.986     c2.229,0,4.036-1.767,4.036-3.947l0,0c0-2.18-1.807-3.947-4.036-3.947h-37.986C314.599,404.341,312.791,406.108,312.791,408.287z     "/>
			<path style="fill:#ffb8b8;" d="M367.034,408.287L367.034,408.287c0,2.18,1.807,3.947,4.036,3.947h29.677     c2.229,0,4.036-1.767,4.036-3.947l0,0c0-2.18-1.807-3.947-4.036-3.947H371.07C368.841,404.341,367.034,406.108,367.034,408.287z"/>
			<path style="fill:#56b5e8;" d="M334.901,255.079L334.901,255.079c0,2.18,1.807,3.947,4.036,3.947h87.919     c2.229,0,4.036-1.767,4.036-3.947l0,0c0-2.18-1.807-3.947-4.036-3.947h-87.919C336.708,251.133,334.901,252.9,334.901,255.079z"/>
			<path style="fill:#ffb8b8;" d="M367.029,234.345h-10.747c-2.229,0-4.036,1.767-4.036,3.947v0c0,2.18,1.807,3.947,4.036,3.947     h10.747c2.229,0,4.036-1.767,4.036-3.947v0C371.066,236.112,369.259,234.345,367.029,234.345z"/>
			<path style="fill:#3477b5;" d="M339.956,234.345h-36.5c-2.229,0-4.036,1.767-4.036,3.947v0c0,2.18,1.807,3.947,4.036,3.947h36.5     c2.229,0,4.036-1.767,4.036-3.947v0C343.992,236.112,342.185,234.345,339.956,234.345z"/>
			<path style="fill:#3477b5;" d="M377.339,238.292L377.339,238.292c0,2.18,1.807,3.947,4.036,3.947h45.481     c2.229,0,4.036-1.767,4.036-3.947v0c0-2.18-1.807-3.947-4.036-3.947h-45.481C379.146,234.345,377.339,236.112,377.339,238.292z"/>
			<path style="fill:#ffb8b8;" d="M330.586,274.509L330.586,274.509c0,2.18,1.807,3.947,4.036,3.947h19.431     c2.229,0,4.036-1.767,4.036-3.947l0,0c0-2.18-1.807-3.947-4.036-3.947h-19.431C332.393,270.562,330.586,272.329,330.586,274.509z     "/>
			<path style="fill:#56b5e8;" d="M369.954,274.509L369.954,274.509c0,2.18,1.807,3.947,4.036,3.947h19.97     c2.229,0,4.036-1.767,4.036-3.947l0,0c0-2.18-1.807-3.947-4.036-3.947h-19.97C371.761,270.562,369.954,272.329,369.954,274.509z"/>
			<path style="fill:#ffb8b8;" d="M409.695,274.509L409.695,274.509c0,2.18,1.807,3.947,4.036,3.947h14.709     c2.229,0,4.036-1.767,4.036-3.947l0,0c0-2.18-1.807-3.947-4.036-3.947h-14.709C411.502,270.562,409.695,272.329,409.695,274.509z     "/>
			<path style="fill:#ffb8b8;" d="M349.087,293.938L349.087,293.938c0,2.18,1.807,3.947,4.036,3.947h22.666     c2.229,0,4.036-1.767,4.036-3.947l0,0c0-2.18-1.807-3.947-4.036-3.947h-22.666C350.894,289.992,349.087,291.759,349.087,293.938z     "/>
			<path style="fill:#3477b5;" d="M286.905,293.938L286.905,293.938c0,2.18,1.807,3.947,4.036,3.947h7.566     c2.229,0,4.036-1.767,4.036-3.947l0,0c0-2.18-1.807-3.947-4.036-3.947h-7.566C288.712,289.992,286.905,291.759,286.905,293.938z"/>
			<path style="fill:#ffb8b8;" d="M310.094,293.938L310.094,293.938c0,2.18,1.807,3.947,4.036,3.947h16.734     c2.229,0,4.036-1.767,4.036-3.947l0,0c0-2.18-1.807-3.947-4.036-3.947H314.13C311.901,289.992,310.094,291.759,310.094,293.938z"/>
			<path style="fill:#3477b5;" d="M394.761,293.938L394.761,293.938c0,2.18,1.807,3.947,4.036,3.947h29.677     c2.229,0,4.036-1.767,4.036-3.947l0,0c0-2.18-1.807-3.947-4.036-3.947h-29.677C396.568,289.992,394.761,291.759,394.761,293.938z     "/>
		</g>
		<g>
			<g>
				<path style="fill:#3477b5;" d="M285.229,247.32c-0.464,0-0.929-0.164-1.297-0.497l-9.611-8.685l9.536-9.607      c0.737-0.741,1.949-0.758,2.704-0.039c0.758,0.719,0.776,1.903,0.041,2.644l-6.808,6.857l6.733,6.084      c0.776,0.701,0.823,1.884,0.106,2.642C286.257,247.118,285.744,247.32,285.229,247.32z"/>
			</g>
			<g>
				<path style="fill:#3477b5;" d="M296.819,247.32c-0.464,0-0.929-0.164-1.297-0.497l-9.611-8.685l9.536-9.607      c0.737-0.741,1.948-0.758,2.704-0.039c0.758,0.719,0.776,1.903,0.041,2.644l-6.808,6.857l6.733,6.084      c0.776,0.701,0.823,1.884,0.106,2.642C297.847,247.118,297.335,247.32,296.819,247.32z"/>
			</g>
			<g>
				<path style="fill:#3477b5;" d="M422.442,418.5c-0.515,0-1.028-0.202-1.405-0.601c-0.717-0.759-0.669-1.941,0.107-2.642      l6.733-6.085l-6.808-6.857c-0.735-0.74-0.717-1.924,0.041-2.644c0.755-0.719,1.967-0.701,2.704,0.04l9.536,9.607l-9.611,8.685      C423.371,418.336,422.906,418.5,422.442,418.5z"/>
			</g>
			<g>
				<path style="fill:#3477b5;" d="M410.852,418.5c-0.515,0-1.028-0.202-1.405-0.601c-0.717-0.759-0.669-1.941,0.107-2.642      l6.733-6.085l-6.808-6.857c-0.735-0.74-0.717-1.924,0.041-2.644c0.756-0.719,1.967-0.701,2.704,0.04l9.536,9.607l-9.611,8.685      C411.781,418.336,411.316,418.5,410.852,418.5z"/>
			</g>
		</g>
	</g>
	<g>
		<g>
			<g>
				<g>
					<path style="fill:#1e3f84;" d="M228.036,39.641c-5.296,1.529-10.551,3.748-14.505,7.589c-3.954,3.841-6.411,9.559-5.234,14.945       c1.642,7.505,9.344,11.927,16.557,14.571c17.356,6.363,37.011,7.777,54.248,1.099c9.892-3.832,22.163-16.583,12.566-27.094       c-8.035-8.801-25.735-12.63-36.914-13.63C245.796,36.32,236.682,37.145,228.036,39.641z"/>
				</g>
			</g>
		</g>
		<g>
			<path style="fill:#03eaf4;" d="M226.178,63.829h-2.227l-0.831,4.732h-2.112l0.831-4.732h-2.62v-1.985h2.966l0.577-3.3h-2.677     v-1.985h3.035l0.843-4.801h2.1l-0.842,4.801h2.239l0.842-4.801h2.112l-0.842,4.801h2.527v1.985h-2.885l-0.577,3.3h2.585v1.985     h-2.931l-0.831,4.732h-2.112L226.178,63.829z M224.297,61.844h2.227l0.577-3.3h-2.239L224.297,61.844z"/>
			<path style="fill:#03eaf4;" d="M244.774,64.152c0-0.654-0.231-1.156-0.693-1.506c-0.461-0.35-1.292-0.719-2.492-1.108     c-1.2-0.389-2.15-0.771-2.851-1.149c-1.908-1.031-2.862-2.42-2.862-4.166c0-0.908,0.256-1.718,0.767-2.429     c0.512-0.711,1.246-1.267,2.204-1.667c0.958-0.4,2.033-0.6,3.225-0.6c1.2,0,2.269,0.218,3.208,0.652     c0.939,0.435,1.668,1.048,2.187,1.841c0.519,0.792,0.779,1.693,0.779,2.7h-3.462c0-0.769-0.242-1.368-0.727-1.794     c-0.485-0.427-1.165-0.641-2.042-0.641c-0.847,0-1.505,0.179-1.974,0.537c-0.47,0.358-0.704,0.829-0.704,1.414     c0,0.546,0.275,1.004,0.825,1.373c0.55,0.369,1.36,0.715,2.429,1.038c1.97,0.593,3.405,1.327,4.305,2.205     c0.9,0.877,1.35,1.97,1.35,3.277c0,1.454-0.551,2.595-1.651,3.422c-1.1,0.827-2.581,1.241-4.442,1.241     c-1.293,0-2.47-0.237-3.531-0.71c-1.062-0.473-1.872-1.121-2.43-1.945c-0.558-0.823-0.837-1.777-0.837-2.862h3.473     c0,1.855,1.108,2.782,3.324,2.782c0.823,0,1.465-0.167,1.926-0.502C244.543,65.22,244.774,64.753,244.774,64.152z"/>
			<path style="fill:#03eaf4;" d="M265.369,60.54c0,1.569-0.254,2.933-0.762,4.091c-0.508,1.158-1.211,2.087-2.112,2.787     l2.793,2.193l-2.205,1.95l-3.578-2.874c-0.407,0.069-0.83,0.104-1.269,0.104c-1.393,0-2.635-0.335-3.728-1.004     c-1.092-0.67-1.938-1.626-2.539-2.868c-0.6-1.242-0.904-2.672-0.911-4.288v-0.831c0-1.654,0.298-3.11,0.894-4.368     c0.597-1.258,1.439-2.224,2.528-2.897c1.089-0.673,2.332-1.01,3.733-1.01c1.401,0,2.645,0.337,3.733,1.01     c1.089,0.673,1.931,1.639,2.528,2.897c0.596,1.258,0.894,2.71,0.894,4.357V60.54z M261.861,59.778c0-1.762-0.316-3.1-0.946-4.016     c-0.631-0.915-1.531-1.373-2.701-1.373c-1.162,0-2.058,0.452-2.689,1.356c-0.631,0.904-0.951,2.229-0.958,3.976v0.82     c0,1.715,0.316,3.046,0.946,3.993c0.631,0.947,1.539,1.42,2.724,1.42c1.162,0,2.055-0.456,2.678-1.368     c0.623-0.911,0.938-2.241,0.946-3.987V59.778z"/>
			<path style="fill:#03eaf4;" d="M272.371,65.779h7.352v2.781h-10.814V51.758h3.462V65.779z"/>
		</g>
	</g>
</g>
</svg>