<svg xmlns="http://www.w3.org/2000/svg" xmlns:xlink="http://www.w3.org/1999/xlink" version="1.1" x="0px" y="0px" viewBox="0 0 3710 3710" style="enable-background:new 0 0 3710 3710;" xml:space="preserve">
<g id="Background">
	<g>
		<g>
			<rect style="fill:#edf9fe;" width="3710" height="3710"/>
		</g>
	</g>
</g>
<g id="Illustration">
	<g>
		<path style="fill:#edf9fe;" d="M3221.443,1650.967c-76.319-499.542-389.225-1113.263-1007.406-1177.491    c0,0-469.352-57.088-932.03,29.437c-274.599,51.352-515.382,204.217-667.74,423.922    c-152.36,219.706-203.251,487.607-141.487,743.016c40.116,165.89,67.223,337.577,59.784,508.037    c-9.381,214.979-27.049,441.016,67.986,641.492c139.247,293.726,479.001,380.248,775.457,407.844    c109.246,10.168,218.897,14.268,328.24,22.913c209.76,16.584,444.993-10.253,647.162-64.864    C3381.709,2906.955,3297.762,2150.507,3221.443,1650.967z"/>
		<g>
			<g>
				<path style="fill:#153e3e;" d="M1561.167,1338.65v50.422c0,18.96,14.882,34.515,33.294,34.744l71.43,0.889      c6.119,45.075,18.245,88.348,35.573,128.997l-63.982,36.199c-16.073,9.094-21.569,30.038-12.304,46.831l24.714,44.794      c9.321,16.895,30.021,23.344,46.263,14.356l66.164-36.615c26.893,35.956,58.505,68.465,94.014,96.567l-39.67,67.584      c-9.585,16.329-3.899,38.079,12.73,48.631l44.461,28.215c16.808,10.667,38.373,6.043,48.137-10.381l40.865-68.743      c40.94,18.816,84.917,32.651,131.159,40.555v83.43c0,19.87,16.345,36.954,36.571,38.164l54.133,3.237      c20.485,1.225,37.145-14.063,37.145-34.151v-84.346c47.644-3.361,93.672-13.096,137.165-28.436l44.045,75.661      c10.619,18.24,34.203,25.589,52.713,16.358l49.503-24.688c18.72-9.336,25.147-31.838,14.32-50.204l-44.411-75.337      c39.723-26.623,75.52-58.609,106.299-95.013l77.033,44.674c19.2,11.135,43.838,5.852,54.996-11.86l29.771-47.261      c11.232-17.831,4.564-41.27-14.857-52.292l-76.162-43.225c20.447-43.29,34.836-89.919,42.12-138.9l86.288,1.074      c22.622,0.281,41.022-16.604,41.022-37.716v-56.146c0-21.112-18.4-38.259-41.022-38.298l-84.056-0.144      c-5.71-50.154-18.835-98.121-38.265-142.868l70.074-38.778c19.421-10.747,26.089-34.093,14.857-52.082l-29.771-47.682      c-11.158-17.87-35.796-23.502-54.996-12.639l-67.721,38.314c-31.029-39.325-67.662-74.006-108.64-102.977l37.44-62.981      c10.827-18.213,4.4-40.806-14.32-50.407l-49.503-25.389c-18.509-9.493-42.094-2.479-52.712,15.612l-36.135,61.56      c-45.805-17.581-94.531-28.943-145.076-33.155v-68.093c0-20.088-16.659-35.612-37.145-34.678l-54.133,2.47      c-20.226,0.923-36.571,17.776-36.571,37.646v67.353c-49.034,7.754-95.521,22.21-138.542,42.248l-33.482-56.797      c-9.764-16.562-31.329-21.491-48.137-11.063l-44.46,27.585c-16.629,10.317-22.315,31.986-12.73,48.451l33.406,57.384      c-36.541,29.375-68.803,63.529-95.834,101.408l-58.08-32.964c-16.242-9.218-36.942-3.062-46.263,13.701l-24.714,44.443      c-9.265,16.661-3.769,37.684,12.304,47.005l58.812,34.106c-16.436,41.436-27.483,85.542-32.275,131.488l-69.558-0.12      C1576.048,1304.345,1561.167,1319.689,1561.167,1338.65z M1802.471,1357.733c0-192.495,156.29-352.344,355.118-357.181      c205.822-5.007,378.063,156.934,378.063,361.867c0,204.933-172.242,364.673-378.063,357.035      C1958.762,1712.075,1802.471,1550.228,1802.471,1357.733z"/>
				<polygon style="fill:#153e3e;" points="2387.895,806.143 2437.436,804.435 2454.519,848.851     "/>
				<polygon style="fill:#153e3e;" points="1896.651,826.643 1839.524,827.212 1839.524,869.351     "/>
				<polygon style="fill:#153e3e;" points="1678.942,1029.911 1621.998,1032.211 1636.234,1064.099     "/>
				<polygon style="fill:#153e3e;" points="1589.539,1304.973 1532.026,1309.528 1550.817,1337.431     "/>
				<polygon style="fill:#153e3e;" points="1685.205,1699.595 1629.4,1707.567 1622.567,1662.012     "/>
				<polygon style="fill:#153e3e;" points="1898.745,1905.163 1848.635,1914.274 1844.649,1877.26     "/>
				<polygon style="fill:#153e3e;" points="2149.299,1993.995 2194.285,1986.023 2155.563,1928.51     "/>
				<polygon style="fill:#153e3e;" points="2393.02,1945.593 2445.408,1934.774 2404.978,1885.802     "/>
				<polygon style="fill:#153e3e;" points="2687.42,1007.155 2632.754,1008.864 2654.393,1048.725     "/>
				<polygon style="fill:#153e3e;" points="2796.183,1435.944 2746.073,1443.347 2750.059,1402.347     "/>
				<polygon style="fill:#153e3e;" points="2688.559,1736.039 2639.587,1744.011 2635.601,1711.553     "/>
			</g>
			<path style="fill:#3f51b5;" d="M1504.693,1343.445v50.833c0,19.114,15.005,34.796,33.571,35.027l72.022,0.896     c6.169,45.442,18.397,89.067,35.868,130.048l-64.513,36.494c-16.206,9.168-21.748,30.283-12.406,47.212l24.919,45.159     c9.398,17.032,30.27,23.534,46.646,14.473l66.713-36.913c27.116,36.249,58.99,69.023,94.794,97.353l-39.999,68.134     c-9.665,16.462-3.931,38.389,12.835,49.028l44.829,28.445c16.948,10.753,38.691,6.092,48.536-10.466l41.204-69.303     c41.279,18.969,85.62,32.917,132.246,40.885v84.109c0,20.031,16.481,37.255,36.874,38.475l54.581,3.263     c20.655,1.235,37.453-14.178,37.453-34.429v-85.034c48.039-3.388,94.449-13.203,138.302-28.668l44.411,76.278     c10.707,18.389,34.487,25.797,53.15,16.491l49.913-24.889c18.875-9.412,25.356-32.098,14.439-50.613l-44.78-75.951     c40.052-26.839,76.146-59.086,107.18-95.787l77.672,45.038c19.359,11.225,44.202,5.9,55.452-11.956l30.018-47.646     c11.325-17.976,4.602-41.606-14.98-52.718l-76.793-43.578c20.616-43.643,35.125-90.652,42.469-140.031l87.003,1.082     c22.81,0.284,41.362-16.739,41.362-38.023v-56.603c0-21.284-18.552-38.57-41.362-38.61l-84.752-0.146     c-5.758-50.562-18.991-98.92-38.582-144.032l70.655-39.094c19.581-10.835,26.305-34.37,14.98-52.507l-30.018-48.071     c-11.25-18.016-36.093-23.694-55.452-12.742l-68.282,38.627c-31.286-39.645-68.223-74.609-109.541-103.816l37.75-63.494     c10.917-18.362,4.437-41.138-14.439-50.818l-49.914-25.596c-18.662-9.57-42.443-2.499-53.149,15.739l-36.434,62.062     c-46.185-17.724-95.314-29.179-146.278-33.425v-68.648c0-20.252-16.797-35.903-37.453-34.96l-54.581,2.49     c-20.394,0.93-36.874,17.921-36.874,37.953v67.902c-49.44,7.817-96.313,22.39-139.691,42.592l-33.759-57.26     c-9.845-16.697-31.588-21.666-48.536-11.153l-44.829,27.81c-16.767,10.401-22.5,32.247-12.835,48.846l33.683,57.851     c-36.844,29.615-69.373,64.046-96.629,102.235l-58.561-33.232c-16.377-9.293-37.248-3.087-46.646,13.813l-24.919,44.805     c-9.342,16.797-3.8,37.991,12.406,47.388l59.299,34.384c-16.573,41.774-27.711,86.238-32.542,132.56l-70.134-0.121     C1519.698,1308.861,1504.693,1324.331,1504.693,1343.445z M1747.998,1362.684c0-194.063,157.586-355.215,358.061-360.091     c207.528-5.048,381.197,158.212,381.197,364.815c0,206.603-173.669,367.643-381.197,359.944     C1905.583,1719.913,1747.998,1556.748,1747.998,1362.684z"/>
		</g>
		<g>
			<g>
				
					<linearGradient id="SVGID_1_" gradientUnits="userSpaceOnUse" x1="1130.847" y1="1841.6294" x2="700.6403" y2="1888.5608" gradientTransform="matrix(1 0 0 1 312.7122 0)" fill="#03a9f4">
					<stop offset="0" style="stop-color:#f9f9ff" fill="#03a9f4"/>
					<stop offset="0.9964" style="stop-color:#000000" fill="#03a9f4"/>
				</linearGradient>
				<path style="fill:url(#SVGID_1_);" d="M1957.248,757.741l262.089,2178.436c3.929,32.663-18.583,61.942-50.118,65.072      l-1091.636,119.845c-66.873,4.16-103.487-30.006-107.614-64.738L694.805,740.315c-4.103-34.538,28.705-65.817,95.862-65.818      l1101.568,23.201C1924.124,698.232,1953.338,725.25,1957.248,757.741z"/>
				
					<linearGradient id="SVGID_00000155851663415746784830000008004565915214767008_" gradientUnits="userSpaceOnUse" x1="1509.8998" y1="757.2076" x2="446.1232" y2="4378.75" gradientTransform="matrix(1 0 0 1 312.7122 0)" fill="#03a9f4">
					<stop offset="0" style="stop-color:#f9f9ff" fill="#03a9f4"/>
					<stop offset="0.9964" style="stop-color:#000000" fill="#03a9f4"/>
				</linearGradient>
				<path style="fill:url(#SVGID_00000155851663415746784830000008004565915214767008_);" d="M2006.379,753.992l263.529,2189.333      c3.952,32.827-18.637,62.258-50.289,65.409l-1131.721,112.675c-35.482,3.532-67.998-22.135-72.148-57.046L739.041,736.352      c-4.126-34.716,21.935-62.622,57.804-62.017l1144.265,19.307C1973.119,694.182,2002.448,721.338,2006.379,753.992z"/>
				<path style="fill:#86a7ae;" d="M1984.905,874.753l244.257,2029.945c3.69,30.669-17.464,58.114-47.091,60.994l-1064.345,103.463      c-32.984,3.206-63.21-20.753-67.075-53.249L794.931,865.365c-3.844-32.327,20.35-58.484,53.668-58.129l1075.268,11.451      C1953.802,819.005,1981.232,844.233,1984.905,874.753z"/>
				
					<linearGradient id="SVGID_00000087384411316242245730000012967889766501656995_" gradientUnits="userSpaceOnUse" x1="1111.2777" y1="668.006" x2="-138.9488" y2="4054.0356" gradientTransform="matrix(1 0 0 1 312.7122 0)" fill="#03a9f4">
					<stop offset="0" style="stop-color:#0a2472" fill="#03a9f4"/>
					<stop offset="0.9964" style="stop-color:#3f51b5" fill="#03a9f4"/>
				</linearGradient>
				<path style="fill:url(#SVGID_00000087384411316242245730000012967889766501656995_);" d="M1414.146,752.487      c1.395,11.655-6.969,20.984-18.694,20.836c-11.738-0.148-22.395-9.736-23.792-21.413c-1.397-11.678,6.998-21.006,18.737-20.834      C1402.125,731.247,1412.752,740.833,1414.146,752.487z"/>
				<g>
					<path style="fill:#edf9fe;" d="M1800.889,2237.38c-217.895-402.857-543.396-523.442-641.397-938.63       c-52.974-224.426-16.881-439.231,43.907-617.555l-406.553-6.86c-35.869-0.605-61.93,27.301-57.803,62.017l276.708,2328.01       c4.149,34.911,36.665,60.579,72.148,57.046l889.642-88.573C1984.12,2671.86,1898.017,2416.956,1800.889,2237.38z"/>
				</g>
			</g>
			<g>
				<path style="fill:#153e3e;" d="M1198.501,1173.582c8.775,77.172-39.683,141.354-108.653,143.245      c-69.424,1.905-133.075-59.951-141.74-138.049c-8.651-77.965,40.871-141.868,110.185-142.845      C1127.155,1034.962,1189.741,1096.539,1198.501,1173.582z"/>
				<path style="fill:#153e3e;" d="M1950.339,1157.978c9.071,74.395-35.226,136.209-99.319,137.968      c-64.499,1.769-124.381-57.884-133.366-133.138c-8.969-75.131,36.286-136.686,100.697-137.595      C1882.358,1024.31,1941.282,1083.704,1950.339,1157.978z"/>
				<path style="fill:#153e3e;" d="M1510.516,1026.095l-131.7,1.836c-25.931,0.361-44.243,24.576-40.838,54.104l17.864,154.885      c3.419,29.645,27.294,53.132,53.261,52.443l131.882-3.499c25.576-0.679,43.462-25.014,40.008-54.336l-18.048-153.205      C1559.505,1049.113,1536.057,1025.739,1510.516,1026.095z"/>
				<path style="fill:#153e3e;" d="M1634.488,1617.037c9.02,76.507-37.351,141.282-103.974,144.583      c-67.055,3.322-128.978-56.824-137.9-134.24c-8.907-77.287,38.481-141.811,105.437-144.222      C1564.578,1480.762,1625.484,1540.656,1634.488,1617.037z"/>
				<path style="fill:#153e3e;" d="M2004.385,1601.22c9.159,75.117-35.179,138.667-99.412,141.849      c-64.643,3.203-124.716-55.884-133.788-131.877c-9.057-75.868,36.245-139.175,100.8-141.5      C1936.133,1467.382,1995.241,1526.225,2004.385,1601.22z"/>
				<path style="fill:#153e3e;" d="M1177.985,1491.115l-137.01,4.91c-26.982,0.967-46.174,26.372-42.799,56.761l17.703,159.415      c3.388,30.513,28.096,54.198,55.119,52.884l137.214-6.672c26.605-1.294,45.344-26.816,41.917-56.988l-17.909-157.636      C1228.805,1513.737,1204.551,1490.162,1177.985,1491.115z"/>
				<path style="fill:#153e3e;" d="M1303.602,2097.949c8.953,78.74-39.641,146.69-108.965,151.681      c-69.784,5.023-133.877-55.593-142.721-135.296c-8.828-79.566,40.848-147.276,110.522-151.334      C1231.653,1958.968,1294.664,2019.344,1303.602,2097.949z"/>
				<path style="fill:#153e3e;" d="M1616.892,1932.982l-132.331,7.685c-26.057,1.513-44.417,27.145-40.943,57.267l18.224,158.006      c3.488,30.243,27.522,53.269,53.616,51.415l132.513-9.416c25.696-1.826,43.624-27.563,40.101-57.471l-18.408-156.259      C1666.154,1954.419,1642.553,1931.492,1616.892,1932.982z"/>
				<path style="fill:#153e3e;" d="M1989.309,1911.354l-127.571,7.409c-25.117,1.459-42.664,26.595-39.132,56.159l18.527,155.077      c3.546,29.681,26.858,52.306,52.007,50.519l127.733-9.076c24.772-1.76,41.91-26.999,38.333-56.357l-18.691-153.394      C2036.953,1932.447,2014.051,1909.917,1989.309,1911.354z"/>
				<path style="fill:#153e3e;" d="M1742.511,2533.325c9.2,78.04-37.275,146.513-104.213,152.856      c-67.377,6.385-129.712-52.537-138.815-131.523c-9.088-78.852,38.42-147.111,105.699-152.548      C1672.024,2396.708,1733.327,2455.416,1742.511,2533.325z"/>
				<path style="fill:#153e3e;" d="M1283.53,2424.448l-137.717,11.107c-27.123,2.187-46.374,29.091-42.93,60.107l18.069,162.705      c3.459,31.144,28.339,54.336,55.503,51.788l137.921-12.941c26.74-2.509,45.531-29.514,42.033-60.303l-18.274-160.853      C1334.65,2445.394,1310.23,2422.294,1283.53,2424.448z"/>
				<path style="fill:#153e3e;" d="M2044.135,2363.106l-127.851,10.311c-25.173,2.03-42.738,27.868-39.171,57.725l18.711,156.614      c3.581,29.976,26.968,52.37,52.173,50.005l128.013-12.011c24.826-2.329,41.978-28.262,38.366-57.909l-18.874-154.898      C2091.903,2383.413,2068.93,2361.107,2044.135,2363.106z"/>
			</g>
		</g>
		<g>
			
				<linearGradient id="SVGID_00000183244068582788178150000014683669993772786824_" gradientUnits="userSpaceOnUse" x1="1374.7555" y1="1829.8079" x2="2345.0327" y2="801.6713" fill="#03a9f4">
				<stop offset="0" style="stop-color:#f9f9ff" fill="#03a9f4"/>
				<stop offset="0.9964" style="stop-color:#000000" fill="#03a9f4"/>
			</linearGradient>
			<path style="fill:url(#SVGID_00000183244068582788178150000014683669993772786824_);" d="M1887.639,1101.78h-694.865     c-13.317,0-26.153,2.279-38.356,5.008c-0.375,0.083-0.739,0.621-1.114,0.705c0.114-0.76,0.229-1.318,0.344-2.124     c-78.562,17.369-131.291,87.6-122.659,171.321l0.215,2.14l72.962,707.711l0.214,2.093     c9.953,96.538,98.251,170.276,196.281,164.789l689.567-38.598c30.326-1.698,57.784-11.655,80.5-27.622     c44.792-31.394,71.267-86.084,65.134-146.731l-67.874-672.013C2058.729,1176.902,1978.354,1101.78,1887.639,1101.78z"/>
			<g>
				
					<linearGradient id="SVGID_00000031194681259671692110000001985102420017135802_" gradientUnits="userSpaceOnUse" x1="1903.6097" y1="749.6887" x2="1189.3308" y2="2994.5686" fill="#03a9f4">
					<stop offset="0.0036" style="stop-color:#36a6d8" fill="#03a9f4"/>
					<stop offset="1" style="stop-color:#2196f3" fill="#03a9f4"/>
				</linearGradient>
				<path style="fill:url(#SVGID_00000031194681259671692110000001985102420017135802_);" d="M2112.103,1268.053l67.651,669.937      c6.113,60.498-19.003,115.203-63.565,146.512c-22.599,15.924-48.684,25.893-78.852,27.582l-685.907,38.45      c-97.499,5.458-188.049-67.917-197.967-164.205l-72.92-707.913c-8.601-83.503,45.761-154.313,123.897-171.645      c12.138-2.722,26.251-4.99,39.496-4.99h691.17C2025.35,1101.78,2102.875,1176.72,2112.103,1268.053z"/>
				<g>
					<g>
						<path style="fill:#edf9fe;" d="M1515.62,2000.765c-13.788,0.667-26.67-1.837-38.282-7.451        c-42.684-20.63-63.29-80.516-57.88-168.469c5.169-84.045,33.14-184.803,78.566-283.36        c81.455-176.723,196.992-299.546,280.999-300.179c13.343-0.101,25.777,2.864,36.961,8.806        c40.88,21.718,60.569,80.603,55.571,165.956c-4.786,81.751-31.366,179.956-75.024,276.863        C1717.023,1869.419,1601.507,1996.608,1515.62,2000.765z M1781.305,1263.765c-34.941,0.306-79.972,28.083-126.896,78.424        c-49.058,52.634-97.111,127.199-135.228,210.03c-44.246,96.15-71.462,194.078-76.451,275.405        c-4.692,76.485,11.347,129.466,43.92,145.253c7.9,3.828,16.863,5.534,26.635,5.073c35.928-1.694,81.837-31.536,129.176-83.808        c48.943-54.045,96.332-129.226,133.517-211.638c42.731-94.703,68.733-190.349,73.388-269.644        c4.369-74.414-11.029-126.546-42.323-143.132C1799.422,1265.69,1790.765,1263.682,1781.305,1263.765z"/>
					</g>
					<g>
						<path style="fill:#edf9fe;" d="M1653.702,1780.243c-108.411,3.987-212.897-7.715-293.743-33.151        c-85.501-26.901-135.785-66.854-140.998-112.323c-5.318-46.383,36.953-90.605,118.463-124.276        c77.302-31.931,181.414-51.298,292.62-54.709c4.385-0.135,8.79-0.244,13.143-0.327        c107.147-2.048,208.099,11.189,284.735,37.088c79.674,26.925,125.953,65.59,130.842,109.044        c4.985,44.307-33.625,86.877-109.222,120.096c-72.933,32.046-173.145,52.701-282.715,57.999        C1662.453,1779.896,1658.054,1780.083,1653.702,1780.243z M1645.495,1478.091c-4.266,0.087-8.582,0.199-12.879,0.335        c-108.547,3.464-209.82,22.36-284.643,53.375c-70.856,29.369-109.417,66.627-105.359,102.034        c3.966,34.615,49.025,67.979,123.17,91.398c78.21,24.704,179.801,36.133,285.608,32.373c4.266-0.151,8.578-0.33,12.867-0.531        c107.021-5.044,204.624-24.962,275.349-55.94c65.928-28.876,101.329-64.786,97.513-98.693        c-3.734-33.16-45.369-65.479-114.633-88.802C1848.271,1488.649,1750.062,1475.964,1645.495,1478.091z"/>
					</g>
					<g>
						<path style="fill:#edf9fe;" d="M1854.139,1978.789c0,0-0.003,0-0.004,0c-83.531,3.439-222.999-108.608-339.911-279.573        c-65.269-95.446-113.563-192.709-135.894-276.087c-23.384-87.311-15.079-147.441,23.197-170.392        c10.414-6.245,22.756-9.109,36.621-9.214c86.369-0.65,227.306,119.848,342.285,291.122        c63.07,93.948,109.389,190.155,130.687,271.082c22.223,84.439,14.355,141.216-21.85,165.021        C1879.365,1977.263,1867.412,1978.789,1854.139,1978.789z M1440.516,1266.754c-9.824,0.086-18.399,2.288-25.481,6.545        c-29.199,17.556-34.322,71.252-14.006,147.179c21.589,80.685,68.657,176.592,132.257,269.713        c54.752,80.167,117.66,151.502,177.084,201.008c56.814,47.332,107.159,72.351,141.92,70.712c0,0,0.001,0,0.003,0        c9.407-0.444,17.6-2.89,24.352-7.319c27.723-18.191,32.477-70.753,13.085-144.371        c-20.676-78.492-65.901-172.089-127.607-263.889c-53.733-79.939-116.181-152.153-175.902-203.262        C1528.434,1293.619,1476.634,1266.437,1440.516,1266.754z"/>
					</g>
					<g>
						<path style="fill:#edf9fe;" d="M1718.931,1615.831c3.964,38.914-24.298,71.457-63.273,72.696        c-39.141,1.245-74.24-29.528-78.245-68.742c-4.005-39.22,24.633-71.786,63.815-72.73        C1680.244,1546.115,1714.966,1576.911,1718.931,1615.831z"/>
					</g>
				</g>
				
					<linearGradient id="SVGID_00000021829652087955721800000004784552958700049560_" gradientUnits="userSpaceOnUse" x1="1079.4283" y1="1626.3555" x2="2116.1189" y2="1626.3555" fill="#03a9f4">
					<stop offset="0.0036" style="stop-color:#36a6d8" fill="#03a9f4"/>
					<stop offset="1" style="stop-color:#2196f3" fill="#03a9f4"/>
				</linearGradient>
				<path style="opacity:0.3;fill:url(#SVGID_00000021829652087955721800000004784552958700049560_);" d="M2116.119,2081.887      c-22.598,15.92-50.028,24.993-80.2,26.676l-685.989,38.26c-97.511,5.438-186.762-66.199-196.68-162.485l-72.92-707.951      c-8.601-83.503,45.204-153.464,123.346-170.788c-1.028,7.136-1.297,12.478-1.496,15.232      c-4.037,56.458,6.072,116.086,36.759,168.057c59.844,101.392,168.38,126.316,268.329,162.635      c106.863,38.786,220.993,125.746,258.635,234.884c16.413,47.584,16.977,98.125,28.916,146.429      c35.787,145.062,134.7,263.786,289.892,252.82C2094.912,2084.918,2105.436,2083.4,2116.119,2081.887z"/>
			</g>
		</g>
		<g>
			
				<linearGradient id="SVGID_00000108991553609041321980000004295272223234534283_" gradientUnits="userSpaceOnUse" x1="5881.0518" y1="6925.6807" x2="5961.8403" y2="6925.6807" gradientTransform="matrix(-0.4319 -0.9019 -0.9019 0.4319 9428.876 5444.5669)" fill="#03a9f4">
				<stop offset="0" style="stop-color:#f9f9ff" fill="#03a9f4"/>
				<stop offset="0.9964" style="stop-color:#000000" fill="#03a9f4"/>
			</linearGradient>
			<path style="fill:url(#SVGID_00000108991553609041321980000004295272223234534283_);" d="M627.394,3056.698     c-5.074-2.581-13.6,0.314-19.173,2.208c-2.49,0.844-3.735,1.268-4.462,1.91c-5.3,4.688-0.641,16.934,5.766,36.538     c10.125,30.979,11.707,40.833,17.146,41.194c5.098,0.34,9.53-7.924,10.013-8.847c2.598-4.965,2.322-9.52,1.456-18.18     c-1.603-16.024-3.277-26.589-3.783-29.788C631.198,3061.755,630.726,3058.393,627.394,3056.698z"/>
			
				<linearGradient id="SVGID_00000000909969708010240780000002220793357774720640_" gradientUnits="userSpaceOnUse" x1="6632.4668" y1="6460.5605" x2="6667.9077" y2="6387.2056" gradientTransform="matrix(-0.5146 -0.8575 -0.8575 0.5146 9575.7451 5452.521)" fill="#03a9f4">
				<stop offset="0" style="stop-color:#0a2472" fill="#03a9f4"/>
				<stop offset="0.9964" style="stop-color:#3f51b5" fill="#03a9f4"/>
			</linearGradient>
			<path style="fill:url(#SVGID_00000000909969708010240780000002220793357774720640_);" d="M662.289,3062.306l-32.453,17.954     c-2.005-0.118-11.351-7.985-10.695-17.82l29.813-22.353L662.289,3062.306z"/>
			
				<linearGradient id="SVGID_00000027587989431818185160000007609392024237175486_" gradientUnits="userSpaceOnUse" x1="-2615.0137" y1="2821.9507" x2="-2893.4968" y2="2759.6328" gradientTransform="matrix(1 0 0 1 3736.165 0)" fill="#03a9f4">
				<stop offset="0" style="stop-color:#f9f9ff" fill="#03a9f4"/>
				<stop offset="0.9964" style="stop-color:#000000" fill="#03a9f4"/>
			</linearGradient>
			<path style="fill:url(#SVGID_00000027587989431818185160000007609392024237175486_);" d="M997.703,2436.453     c11.272,42.647,24.085,103.791,28.184,178.156c3.398,61.645,0.637,129.705-6.794,166.707     c-37.233,185.416-330.828,282.83-365.43,293.894c-7.263-9.754-14.526-19.507-21.79-29.261     c36.566-27.181,215.179-164.095,216.959-316.561c0.286-24.543-3.682-77.555-13.981-134.178     c-11.02-60.591-26.451-109.715-38.774-143.799C863.286,2446.426,930.494,2441.439,997.703,2436.453z"/>
			
				<linearGradient id="SVGID_00000091013612317213996250000013273197856398701723_" gradientUnits="userSpaceOnUse" x1="-2768.4333" y1="2103.5942" x2="-2698.2749" y2="2027.8973" gradientTransform="matrix(1 0 0 1 3736.165 0)" fill="#03a9f4">
				<stop offset="0" style="stop-color:#0a2472" fill="#03a9f4"/>
				<stop offset="0.9964" style="stop-color:#3f51b5" fill="#03a9f4"/>
			</linearGradient>
			<path style="fill:url(#SVGID_00000091013612317213996250000013273197856398701723_);" d="M960.547,1905.798l26.183,5.236     c0,0,137.458,175.422,117.821,242.188c-19.637,66.765-117.821,15.71-117.821,15.71L960.547,1905.798z"/>
			
				<linearGradient id="SVGID_00000078744965351190587060000011199189701234879642_" gradientUnits="userSpaceOnUse" x1="5169.4839" y1="3054.4104" x2="5250.269" y2="3054.4104" gradientTransform="matrix(-0.9996 0.0289 0.0289 0.9996 5941.8403 -31.2392)" fill="#03a9f4">
				<stop offset="0" style="stop-color:#f9f9ff" fill="#03a9f4"/>
				<stop offset="0.9964" style="stop-color:#000000" fill="#03a9f4"/>
			</linearGradient>
			<path style="fill:url(#SVGID_00000078744965351190587060000011199189701234879642_);" d="M788.031,3154.821     c-4.417,3.591-5.23,12.558-5.76,18.42c-0.239,2.618-0.356,3.929-0.064,4.853c2.134,6.746,15.218,7.456,35.735,9.552     c32.422,3.312,42.071,5.864,44.608,1.04c2.378-4.522-3.376-11.925-4.025-12.742c-3.484-4.388-7.759-5.984-16.026-8.706     c-15.296-5.035-25.632-7.792-28.762-8.626C794.197,3153.396,790.933,3152.463,788.031,3154.821z"/>
			
				<linearGradient id="SVGID_00000062909060068459420540000011700695072271963008_" gradientUnits="userSpaceOnUse" x1="5561.9805" y1="2673.8843" x2="5597.4224" y2="2600.5273" gradientTransform="matrix(-0.9925 0.1225 0.1225 0.9925 6009.104 -162.6817)" fill="#03a9f4">
				<stop offset="0" style="stop-color:#0a2472" fill="#03a9f4"/>
				<stop offset="0.9964" style="stop-color:#3f51b5" fill="#03a9f4"/>
			</linearGradient>
			<path style="fill:url(#SVGID_00000062909060068459420540000011700695072271963008_);" d="M807.313,3125.201l3.245,36.947     c-0.921,1.784-11.903,7.135-20.626,2.546l-8.337-36.317L807.313,3125.201z"/>
			
				<linearGradient id="SVGID_00000160151496414969796060000003571622815955472021_" gradientUnits="userSpaceOnUse" x1="-3171.8096" y1="2556.3574" x2="-3400.728" y2="2040.3207" gradientTransform="matrix(0.9925 -0.1225 0.1225 0.9925 3819.1702 108.1241)" fill="#03a9f4">
				<stop offset="0" style="stop-color:#f9f9ff" fill="#03a9f4"/>
				<stop offset="0.9964" style="stop-color:#000000" fill="#03a9f4"/>
			</linearGradient>
			<path style="fill:url(#SVGID_00000160151496414969796060000003571622815955472021_);" d="M846.859,2349.879     c-8.097,147.427-14.757,297.598-19.803,450.43c-3.788,114.684-6.569,227.914-8.417,339.654     c-13.513,1.668-27.027,3.337-40.542,5.005c-13.058-24.312-30.401-61.48-42.282-109.121c-14.43-57.86-11.089-92.22-17.417-152.188     c-7.101-67.258-17.414-81.911-35.684-166.756c-37.082-172.19-55.623-258.286-14.258-311.842     C681.882,2387.677,723.978,2344.062,846.859,2349.879z"/>
			
				<linearGradient id="SVGID_00000019666206434576943760000009870520744993994161_" gradientUnits="userSpaceOnUse" x1="-3072.873" y1="2405.1033" x2="-2807.5569" y2="2118.8416" gradientTransform="matrix(1 0 0 1 3736.165 0)" fill="#03a9f4">
				<stop offset="0" style="stop-color:#0a2472" fill="#03a9f4"/>
				<stop offset="0.9964" style="stop-color:#3f51b5" fill="#03a9f4"/>
			</linearGradient>
			<path style="fill:url(#SVGID_00000019666206434576943760000009870520744993994161_);" d="M659.711,1910.311     c34.955-9.83,86.185-21.325,148.925-24.872c92.507-5.228,138.776-7.543,165.932,13.723     c84.22,65.953,4.405,301.689,34.417,425.556c25.253,104.224,26.182,106.039,26.182,106.039     c5.969,11.652,15.643,27.842,11.782,47.128c-3.036,15.169-14.513,32.599-30.109,37.965     c-32.409,11.151-50.987-40.668-104.73-56.292c-56.178-16.332-119.03,16.114-198.507,57.14     c-50.579,26.11-67.85,42.763-85.573,34.499c-34.127-15.912-24.755-103.149-20.946-138.767     C622.219,2270.891,639.254,2105.176,659.711,1910.311z"/>
			
				<linearGradient id="SVGID_00000137837972805423621460000015487307625556163486_" gradientUnits="userSpaceOnUse" x1="-2847.3257" y1="2149.9231" x2="-2744.4719" y2="2149.9231" gradientTransform="matrix(1 0 0 1 3736.165 0)" fill="#03a9f4">
				<stop offset="0" style="stop-color:#0a2472" fill="#03a9f4"/>
				<stop offset="0.9964" style="stop-color:#3f51b5" fill="#03a9f4"/>
			</linearGradient>
			<path style="fill:url(#SVGID_00000137837972805423621460000015487307625556163486_);" d="M891.818,2150.604     c-2.446-0.546-6.804-16.815,3.927-21.601c48.438-21.601,85.922,21.166,90.934,34.325c5.013,13.159,5.013,13.159,5.013,13.159     s-24.055,1.88-38.973-3.132C937.802,2168.342,911.709,2155.039,891.818,2150.604z"/>
			<g>
				<g>
					
						<linearGradient id="SVGID_00000151506278677337432950000007788815169916944061_" gradientUnits="userSpaceOnUse" x1="-678.8243" y1="4745.7476" x2="-707.1212" y2="4705.5659" gradientTransform="matrix(0.2291 -0.9734 -0.9734 -0.2291 5756.1748 2554.8499)" fill="#03a9f4">
						<stop offset="0" style="stop-color:#f9f9ff" fill="#03a9f4"/>
						<stop offset="0.9964" style="stop-color:#000000" fill="#03a9f4"/>
					</linearGradient>
					<path style="fill:url(#SVGID_00000151506278677337432950000007788815169916944061_);" d="M1024.16,2211.855l-85.218,4.299       c-3.265,0.165-7.164-3.876-6.361-6.628l39.808-128.818c0.626-2.142,2.807-3.571,5.233-3.437l81.726,1.791       c2.663,0.157,4.122,5.401,3.398,7.993l-33.863,121.13C1028.325,2210.181,1026.314,2211.747,1024.16,2211.855z"/>
					
						<linearGradient id="SVGID_00000060012558366090667540000010584546823589955997_" gradientUnits="userSpaceOnUse" x1="-733.5532" y1="4819.1592" x2="-666.1725" y2="4682.292" gradientTransform="matrix(0.2291 -0.9734 -0.9734 -0.2291 5756.1748 2554.8499)" fill="#03a9f4">
						<stop offset="0" style="stop-color:#3f51b5" fill="#03a9f4"/>
						<stop offset="1" style="stop-color:#2196f3" fill="#03a9f4"/>
					</linearGradient>
					<path style="fill:url(#SVGID_00000060012558366090667540000010584546823589955997_);" d="M1022.619,2209.11l-85.688,4.021       c-3.285,0.154-5.549-2.196-4.745-4.95l38.276-131.046c0.628-2.149,2.82-3.577,5.26-3.433l81.841,4.839       c2.677,0.158,4.479,2.735,3.753,5.336l-33.953,121.562C1026.805,2207.442,1024.783,2209.009,1022.619,2209.11z"/>
				</g>
				
					<linearGradient id="SVGID_00000031207237195902059630000013732184149542449298_" gradientUnits="userSpaceOnUse" x1="-771.7006" y1="4728.9268" x2="-624.7466" y2="4728.9268" gradientTransform="matrix(0.2291 -0.9734 -0.9734 -0.2291 5756.1748 2554.8499)" fill="#03a9f4">
					<stop offset="0" style="stop-color:#3f51b5" fill="#03a9f4"/>
					<stop offset="1" style="stop-color:#2196f3" fill="#03a9f4"/>
				</linearGradient>
				<path style="opacity:0.3;fill:url(#SVGID_00000031207237195902059630000013732184149542449298_);" d="M979.359,2130.973      c2.537,11.917,13.257,9.351,22.001,23.775c11.101,18.312,0.463,34.483,10.638,41.189c3.106,2.046,8.354,3.276,17.795,0.806      l-2.429,8.696c-0.559,2.003-2.581,3.569-4.745,3.671l-85.688,4.021c-3.284,0.154-5.548-2.196-4.745-4.95l38.276-131.046      c0.628-2.149,2.82-3.578,5.26-3.433l12.294,0.727c1.444,4.503,2.477,9.701,2.365,15.457      C989.995,2109.647,976.387,2117.013,979.359,2130.973z"/>
			</g>
			
				<linearGradient id="SVGID_00000069365291262787352360000006494904308874452925_" gradientUnits="userSpaceOnUse" x1="-2729.8386" y1="2095.4683" x2="-2652.6545" y2="2193.3074" gradientTransform="matrix(1 0 0 1 3736.165 0)" fill="#03a9f4">
				<stop offset="0" style="stop-color:#0a2472" fill="#03a9f4"/>
				<stop offset="0.9964" style="stop-color:#3f51b5" fill="#03a9f4"/>
			</linearGradient>
			<path style="fill:url(#SVGID_00000069365291262787352360000006494904308874452925_);" d="M1061.666,2121.353     c0.48-2.061-0.537-4.184-2.069-4.294c-6.236-0.45-20.699-0.633-28.684,6.283c-10.372,8.986-23.784,25.384-12.489,33.658     l10.546,7.728c0.484,0.355,1.012,0.465,1.543,0.301c3.748-1.166,19.52-6.115,21.245-7.344     C1053.329,2156.567,1059.343,2131.324,1061.666,2121.353z"/>
			
				<linearGradient id="SVGID_00000071525410412807498660000006292238992920058003_" gradientUnits="userSpaceOnUse" x1="-3055.2849" y1="2421.4043" x2="-2789.9685" y2="2135.1423" gradientTransform="matrix(1 0 0 1 3736.165 0)" fill="#03a9f4">
				<stop offset="0" style="stop-color:#0a2472" fill="#03a9f4"/>
				<stop offset="0.9964" style="stop-color:#3f51b5" fill="#03a9f4"/>
			</linearGradient>
			<path style="opacity:0.3;fill:url(#SVGID_00000071525410412807498660000006292238992920058003_);" d="M990.657,2466.103     c-9.139-15.843-8.755-39.768-28.801-51.055c-11.687-6.582-20.798-3.504-36.656-3.928c-47.271-1.26-56.319-31-89.02-32.728     c-50.644-2.677-74.97,66.218-103.421,56.292c-18.572-6.479-30.531-43.626-20.946-72.002     c13.361-39.556,59.15-34.138,119.13-87.711c25.659-22.917,62.474-64.276,52.365-82.475     c-10.618-19.115-60.998,8.934-98.185-19.637c-21.699-16.671-18.929-37.273-36.656-74.62     c-9.605-20.238-44.781-72.855-97.095-108.33c-16.817,160.854-31.261,300.674-44.29,422.52     c-3.809,35.618-13.181,122.855,20.946,138.767c17.723,8.264,34.994-8.389,85.573-34.499     c79.477-41.026,142.33-73.472,198.507-57.14c53.744,15.624,72.321,67.443,104.73,56.292c10.124-3.483,18.461-12.067,23.932-21.8     C1011.867,2488.852,997.543,2478.039,990.657,2466.103z"/>
			<g>
				
					<linearGradient id="SVGID_00000155856663826504805910000002313350694735360702_" gradientUnits="userSpaceOnUse" x1="-2214.7256" y1="3336.168" x2="-2205.4036" y2="3087.8599" gradientTransform="matrix(0.917 0.3988 -0.3988 0.917 4135.7695 -184.8945)" fill="#03a9f4">
					<stop offset="0" style="stop-color:#0a2472" fill="#03a9f4"/>
					<stop offset="0.9964" style="stop-color:#3f51b5" fill="#03a9f4"/>
				</linearGradient>
				<path style="fill:url(#SVGID_00000155856663826504805910000002313350694735360702_);" d="M822.994,1817.405      c0.059,7.034,7.555,39.207-16.034,56.287c-23.802,17.236-45.908,16.984-54.83,19.197c-20.687,5.129-23.348,4.989-23.805,7.042      c-2.228,10.014,54.181,44.145,112.458,35.919c35.667-5.034,68.118-25.382,66.127-36.068      c-2.005-10.754-37.632-4.984-48.251-24.439c-7.387-13.534,0.894-32.748,10.681-48.66      C859.86,1808.92,832.472,1835.167,822.994,1817.405z"/>
				<g>
					
						<linearGradient id="SVGID_00000079445267181540932770000011297983077900656055_" gradientUnits="userSpaceOnUse" x1="3701.2844" y1="1488.3914" x2="3633.8079" y2="1317.0129" gradientTransform="matrix(-0.9999 0.0148 0.0148 0.9999 4469.9751 388.1969)" fill="#03a9f4">
						<stop offset="0" style="stop-color:#3f51b5" fill="#03a9f4"/>
						<stop offset="1" style="stop-color:#03a9f4" fill="#03a9f4"/>
					</linearGradient>
					<path style="fill:url(#SVGID_00000079445267181540932770000011297983077900656055_);" d="M888.908,1805.761       c8.292-11.274,8.596-30.8-1.24-43.031c-8.464-10.525-21.614-11.893-29.487-12.715c-22.814-2.378-51.457,7.453-61.224,28.534       c-5.787,12.493,7.317,38.173,9.375,42.793c2.332,5.223,6.471,6.979,10.328,10.906c5.344,5.445,13.712,14.105,27.375,28.592       c1.001-4.33,2.537-9.695,5.006-15.518c0.951-2.242,4.771-10.997,10.618-18.287       C871.372,1812.421,881.047,1816.445,888.908,1805.761z"/>
					
						<linearGradient id="SVGID_00000110447610139757675580000013434504398492651922_" gradientUnits="userSpaceOnUse" x1="-2211.7566" y1="1180.0549" x2="-2214.8594" y2="1430.0402" gradientTransform="matrix(0.9972 -0.076 0.076 0.9972 2964.3044 461.87)" fill="#03a9f4">
						<stop offset="0" style="stop-color:#0a2472" fill="#03a9f4"/>
						<stop offset="0.9964" style="stop-color:#3f51b5" fill="#03a9f4"/>
					</linearGradient>
					<path style="fill:url(#SVGID_00000110447610139757675580000013434504398492651922_);" d="M824.64,1848.745       c0,0,15.251,24.407,45.052,22.136c26.682-2.034,29.929-61.958,12.733-74.475c-5.737-4.175-17.152-5.809-26.388-3.11       c-5.455,1.595-7.284,3.889-16.248,6.32c-8.27,2.245-10.622,1.351-13.102,3.484c-3.101,2.671-5.324,9.157,0.099,26.604       c-5.152-5.101-11.288-7.013-15.599-4.919c-0.686,0.336-2.506,1.602-3.517,3.504       C804.013,1835.168,810.357,1843.834,824.64,1848.745z"/>
					
						<linearGradient id="SVGID_00000020396747728500468220000005446925731987739018_" gradientUnits="userSpaceOnUse" x1="3680.6714" y1="1496.5977" x2="3613.126" y2="1325.0449" gradientTransform="matrix(-0.9999 0.0148 0.0148 0.9999 4469.9751 388.1969)" fill="#03a9f4">
						<stop offset="0" style="stop-color:#3f51b5" fill="#03a9f4"/>
						<stop offset="1" style="stop-color:#03a9f4" fill="#03a9f4"/>
					</linearGradient>
					<path style="fill:url(#SVGID_00000020396747728500468220000005446925731987739018_);" d="M825.44,1799.532       c1.298,0.946-2.585,5.794-2.802,12.597c-0.425,13.205,13.111,28.9,26.755,30.093c8.067,0.704,10.227-4.177,23.533-5.732       c8.237-0.962,15.114,0.01,19.443,0.906c4.346,14.43,0.568,28.906-9.034,35.71c-10.337,7.325-23.692,3.099-29.276,1.332       c-3.735-1.182-15.705-4.945-22.059-15.813c-6.621-11.325-0.324-18.265-7.86-25.891c-3.801-3.847-8.756-5.476-13.646-12.95       c-1.328-2.031-2.218-3.83-2.765-5.041C814.538,1807.365,823.56,1798.162,825.44,1799.532z"/>
				</g>
			</g>
			
				<linearGradient id="SVGID_00000164484993212726709730000017979959899307993007_" gradientUnits="userSpaceOnUse" x1="-3033.9988" y1="2256.1899" x2="-2995.5977" y2="1928.0358" gradientTransform="matrix(1 0 0 1 3736.165 0)" fill="#03a9f4">
				<stop offset="0" style="stop-color:#0a2472" fill="#03a9f4"/>
				<stop offset="0.9964" style="stop-color:#3f51b5" fill="#03a9f4"/>
			</linearGradient>
			<path style="fill:url(#SVGID_00000164484993212726709730000017979959899307993007_);" d="M731.45,1950.308     c-14.125-21.424-42.229-42.448-68.075-40.583c-75.481,5.447-168.525,208.781-104.73,289.317     c48.699,61.477,199.141,64.462,336.445-41.892c0-11.782,0-23.565,0-35.346c-67.564,11.816-123.576,19.664-164.949,24.873     c-25.804,3.25-51.508,6.179-56.292-3.927c-7.24-15.293,44.443-37.166,64.147-94.257     C740.711,2040.623,757.99,1990.562,731.45,1950.308z"/>
		</g>
		<g>
			<g>
				
					<linearGradient id="SVGID_00000045595324838846892540000012475628789748187552_" gradientUnits="userSpaceOnUse" x1="1918.5438" y1="2785.9507" x2="2269.6455" y2="2785.9507" fill="#03a9f4">
					<stop offset="0" style="stop-color:#3f51b5" fill="#03a9f4"/>
					<stop offset="1" style="stop-color:#0a2472" fill="#03a9f4"/>
				</linearGradient>
				<path style="fill:url(#SVGID_00000045595324838846892540000012475628789748187552_);" d="M2108.099,3111.819      c-0.243,0.039-0.486,0.078-0.732,0.117c-39.679,6.335-89.408,1.908-121.543-24.5c-16.932-13.914-28.402-32.266-31.923-54      c-2.088-12.89-3.223-26.493-1.206-39.462c2.112-13.578,7.361-26.692,14.121-38.599c3.775-6.649,8.079-13.071,12.648-19.201      c13.087-17.558,44.007-42.228,29.669-67.121c-8.667-15.048-28.645-24.313-41.84-34.865      c-28.206-22.555-48.463-55.076-48.748-92.212c-0.224-29.173,18.067-58.052,38.703-77.666      c83.976-79.817,22.109-217.088,141.048-206.308c118.939,10.78,144.743,129.478,100.197,240.301      c-14.914,37.103-33.065,75.03-43.195,113.807c-7.974,30.525,3.296,51.636,28.155,69.674      c13.374,9.705,32.923,16.32,44.541,27.754c25.952,25.542,46.744,61.342,40.549,98.812c-6.146,37.168-37.828,64.47-71.218,78.591      C2168.452,3099.152,2138.982,3106.873,2108.099,3111.819z"/>
				<g style="opacity:0.8;">
					<path style="fill:#edf9fe;" d="M2094.094,3079.929c-0.279,0-0.562-0.048-0.839-0.149c-1.268-0.463-1.92-1.867-1.457-3.135       c0.502-1.377,49.785-138.975,6.635-249.248c-43.855-112.074,5.201-232.054,5.702-233.253c0.52-1.245,1.95-1.831,3.198-1.314       c1.246,0.521,1.834,1.952,1.314,3.198c-0.492,1.182-48.781,119.391-5.66,229.589c43.832,112.016-6.087,251.313-6.597,252.707       C2096.028,3079.314,2095.092,3079.929,2094.094,3079.929z"/>
				</g>
			</g>
			<g>
				
					<linearGradient id="SVGID_00000166659956641843811910000015231651555783939220_" gradientUnits="userSpaceOnUse" x1="1608.5229" y1="2697.804" x2="2168.2236" y2="2697.804" fill="#03a9f4">
					<stop offset="0" style="stop-color:#0a2472" fill="#03a9f4"/>
					<stop offset="0.9964" style="stop-color:#3f51b5" fill="#03a9f4"/>
				</linearGradient>
				<path style="fill:url(#SVGID_00000166659956641843811910000015231651555783939220_);" d="M2133.179,2905.139      c-9.957-15.76-21.351-30.586-33.245-43.996c-40.188-45.312-68.397-93.415-86.448-151.451      c-14.219-45.715-13.913-97.983-22.736-145.185c-6.393-34.202-17.973-67.304-30.007-99.871      c-25.623-69.339-64.086-149.787-128.643-191.426c-29.89-19.279-74.21-21.181-107.177-7.37      c-42.706,17.891-80.466,52.752-83.206,101.225c-3.767,66.657,54.455,141.378,6.304,202.673      c-73.729,93.856-39.264,198.128,62.098,249.164c33.032,16.632,71.742,32.049,99.342,57.592      c27.683,25.62,11.182,69.332,8.106,101.783c-2.886,30.452-6.068,65.832,13.338,91.867      c32.741,43.927,111.802,63.069,163.194,67.41c49.726,4.2,106.23-1.292,141.059-41.105      C2187.642,3036.454,2170.51,2964.229,2133.179,2905.139z"/>
				<g style="opacity:0.8;">
					<path style="fill:#edf9fe;" d="M2052.252,3096.227c-0.987,0-1.918-0.602-2.287-1.58       c-1.614-4.267-162.41-428.611-254.161-599.615c-0.638-1.19-0.191-2.671,0.999-3.31c1.19-0.637,2.671-0.192,3.31,0.999       c91.902,171.285,252.811,595.927,254.426,600.196c0.478,1.263-0.158,2.674-1.421,3.151       C2052.832,3096.176,2052.54,3096.227,2052.252,3096.227z"/>
				</g>
			</g>
			<g>
				
					<linearGradient id="SVGID_00000024003402931526740780000013227312309899646383_" gradientUnits="userSpaceOnUse" x1="1529.9009" y1="2991.1052" x2="2091.365" y2="2991.1052" fill="#03a9f4">
					<stop offset="0" style="stop-color:#3f51b5" fill="#03a9f4"/>
					<stop offset="1" style="stop-color:#0a2472" fill="#03a9f4"/>
				</linearGradient>
				<path style="fill:url(#SVGID_00000024003402931526740780000013227312309899646383_);" d="M1982.753,3156.248      c10.701-1.515,21.367-3.273,31.991-4.977c29.689-4.763,66.465-14.01,75.803-47.139c2.659-9.435-1.92-26.278-3.022-36.084      c-1.122-9.989-2.546-19.974-4.87-29.762c-3.211-13.525-8.356-26.242-15.029-38.414c-11.563-21.09-24.78-36.958-49.387-41.736      c-17.943-3.483-37.82-4.294-56.055-3.696c-99.413,3.26-111.636-32.594-166.232-109.191s-413.95,47.262-197.197,183.344      c0,0,32.594,21.186,151.562,7.334c21.762-2.534,49.282-4.219,67.73,9.855c32.538,24.823-0.179,77.431,32.675,98.073      c19.157,12.035,49.945,15.576,71.952,16.421C1942.785,3161.048,1962.829,3159.069,1982.753,3156.248z"/>
				<g style="opacity:0.8;">
					<path style="fill:#edf9fe;" d="M2049.105,3115.239c-0.757,0-1.503-0.35-1.981-1.009       c-0.625-0.862-63.558-86.417-152.842-106.613c-34.924-7.899-65.11-25.577-94.302-42.672       c-49.224-28.826-95.719-56.054-164.339-42.063c-1.326,0.271-2.614-0.585-2.884-1.906c-0.27-1.323,0.584-2.614,1.907-2.884       c70.453-14.368,119.935,14.612,167.786,42.635c28.871,16.907,58.725,34.39,92.911,42.122       c91.109,20.609,155.085,107.634,155.721,108.511c0.792,1.093,0.549,2.621-0.544,3.414       C2050.104,3115.088,2049.602,3115.239,2049.105,3115.239z"/>
				</g>
			</g>
		</g>
		<g>
			
				<linearGradient id="SVGID_00000089535235500002906250000001514196752569376945_" gradientUnits="userSpaceOnUse" x1="4352.4639" y1="1842.3954" x2="2860.6743" y2="2476.9626" gradientTransform="matrix(1 0.0219 0 1 0 -14.4292)" fill="#03a9f4">
				<stop offset="0.0036" style="stop-color:#36a6d8" fill="#03a9f4"/>
				<stop offset="1" style="stop-color:#2196f3" fill="#03a9f4"/>
			</linearGradient>
			<polygon style="fill:url(#SVGID_00000089535235500002906250000001514196752569376945_);" points="2577.373,3193.664      2020.214,3158.099 2020.214,2310.108 2577.373,2326.136    "/>
			
				<linearGradient id="SVGID_00000094587060766180393310000016608518156509701038_" gradientUnits="userSpaceOnUse" x1="2776.3638" y1="2633.8955" x2="3236.7148" y2="3391.752" gradientTransform="matrix(1 0.0219 0 1 0 -14.4292)" fill="#03a9f4">
				<stop offset="0.0036" style="stop-color:#36a6d8" fill="#03a9f4"/>
				<stop offset="1" style="stop-color:#2196f3" fill="#03a9f4"/>
			</linearGradient>
			<polygon style="fill:url(#SVGID_00000094587060766180393310000016608518156509701038_);" points="3064.727,3152.176      2577.373,3193.664 2577.373,2326.136 3064.727,2315.961    "/>
			
				<linearGradient id="SVGID_00000075149466440210740790000012196980817859435441_" gradientUnits="userSpaceOnUse" x1="2330.4158" y1="1959.2932" x2="2590.5859" y2="2393.2991" fill="#03a9f4">
				<stop offset="0.0036" style="stop-color:#36a6d8" fill="#03a9f4"/>
				<stop offset="1" style="stop-color:#3f51b5" fill="#03a9f4"/>
				<stop offset="1" style="stop-color:#2196f3" fill="#03a9f4"/>
			</linearGradient>
			<polygon style="fill:url(#SVGID_00000075149466440210740790000012196980817859435441_);" points="2020.214,2310.108      2550.134,2287.145 3064.727,2315.961 2571.567,2334.218    "/>
		</g>
		<g>
			<g>
				<g>
					
						<linearGradient id="SVGID_00000070098889037273942330000013216469395103454378_" gradientUnits="userSpaceOnUse" x1="-3037.855" y1="1637.6641" x2="-2348.3374" y2="2106.0151" gradientTransform="matrix(1 0 0 1 5641.0796 0)" fill="#03a9f4">
						<stop offset="0" style="stop-color:#3f51b5" fill="#03a9f4"/>
						<stop offset="1" style="stop-color:#03a9f4" fill="#03a9f4"/>
					</linearGradient>
					<path style="fill:url(#SVGID_00000070098889037273942330000013216469395103454378_);" d="M2641.107,1886.788       c-12.971-8.41-1.152-32.875-0.454-85.423c0.856-64.395-16.247-76.395-2.51-101.659c16.797-30.894,59.082-43.678,87.096-44.281       c6.178-0.132,7.623-3.507,59.386,9.898c93.258,24.153,116.604-1.738,158.366,24.124c40.348,24.988,22.68,52.354,61.861,81.658       c63.51,47.5,130.296-3.853,175.687,35.879c42.934,37.582,43.922,133.332-1.237,185.586       c-51.195,59.237-143.507,41.44-205.38,29.693c-13.018-2.47-78.77-16.279-147.231-66.809       c-37.872-27.955-63.876-57.806-80.42-79.802c-3.883-4.37-9.941-9.664-17.94-10.516c-9.602-1.025-17.315,4.848-21.033,7.422       C2687.78,1886.076,2653.849,1895.049,2641.107,1886.788z"/>
					
						<linearGradient id="SVGID_00000061444390059387018140000015863331673620097438_" gradientUnits="userSpaceOnUse" x1="3334.9863" y1="1868.0032" x2="3352.7766" y2="2153.9155" gradientTransform="matrix(-1 0 0 1 5871.3652 0)" fill="#03a9f4">
						<stop offset="0" style="stop-color:#3f51b5" fill="#03a9f4"/>
						<stop offset="1" style="stop-color:#0a2472" fill="#03a9f4"/>
					</linearGradient>
					<path style="fill:url(#SVGID_00000061444390059387018140000015863331673620097438_);" d="M2685.081,1811.932       c-16.678-15.195-76.196,14.091-115.64,52.959c-46.339,45.664-42.777,82.688-83.217,139.417       c-20.103,28.202-54.571,66.169-115.641,99.427c4.323,10.807,8.646,21.617,12.969,32.422       c29.527,1.776,87.498,0.732,141.579-34.582c37.568-24.532,56.898-57.037,94.025-121.046       C2656.416,1916.29,2705.929,1830.927,2685.081,1811.932z"/>
					
						<linearGradient id="SVGID_00000145038922465633710000000008641298404710463363_" gradientUnits="userSpaceOnUse" x1="-3350.9419" y1="2680.4868" x2="-3258.0803" y2="2680.4868" gradientTransform="matrix(1 0 0 1 5641.0796 0)" fill="#03a9f4">
						<stop offset="0" style="stop-color:#3f51b5" fill="#03a9f4"/>
						<stop offset="1" style="stop-color:#03a9f4" fill="#03a9f4"/>
					</linearGradient>
					<path style="fill:url(#SVGID_00000145038922465633710000000008641298404710463363_);" d="M2309.173,2680.459l46.461-27.917       h20.969c0,0,7.143,26.589,6.333,27.917c-9.342,15.308-52.84,26.955-79.984,27.918c-4.507,0.159-10.795,0.183-12.421-3.083       C2287.779,2699.763,2300.073,2688.159,2309.173,2680.459z"/>
					
						<linearGradient id="SVGID_00000062182715973191195720000014457594584316131987_" gradientUnits="userSpaceOnUse" x1="-3307.1479" y1="2717.0828" x2="-3168.6067" y2="2301.458" gradientTransform="matrix(1 0 0 1 5641.0796 0)" fill="#03a9f4">
						<stop offset="0" style="stop-color:#0a2472" fill="#03a9f4"/>
						<stop offset="0.9964" style="stop-color:#3f51b5" fill="#03a9f4"/>
					</linearGradient>
					<path style="fill:url(#SVGID_00000062182715973191195720000014457594584316131987_);" d="M2356.457,2622.077       c2.987,17.283-0.792,26.293-4.863,31.341c-2.866,3.552-5.412,4.563-22.424,19.268c-5.625,4.864-8.488,7.469-7.837,8.832       c0.743,1.559,5.708,0.713,16.428-1.864c23.362-5.618,35.102-8.542,37.968-14.164c2.595-5.091,0.301-7.386,0.452-21.258       c0.099-9.132,1.956-16.483,3.416-21.081C2371.883,2622.792,2364.17,2622.436,2356.457,2622.077z"/>
					
						<linearGradient id="SVGID_00000023969007283995846000000007889905727930557113_" gradientUnits="userSpaceOnUse" x1="-3336.1609" y1="2509.98" x2="-3279.3696" y2="2509.98" gradientTransform="matrix(1 0 0 1 5641.0796 0)" fill="#03a9f4">
						<stop offset="0" style="stop-color:#3f51b5" fill="#03a9f4"/>
						<stop offset="1" style="stop-color:#03a9f4" fill="#03a9f4"/>
					</linearGradient>
					<path style="fill:url(#SVGID_00000023969007283995846000000007889905727930557113_);" d="M2322.87,2485.104       c0,0-20.991,25.047-17.575,52.506c3.416,27.457,40.177-12.686,45.302-26.254c5.127-13.566,11.114-32.896,11.114-32.896       S2335.931,2462.423,2322.87,2485.104z"/>
					
						<linearGradient id="SVGID_00000164481692392475633550000004206554972730939534_" gradientUnits="userSpaceOnUse" x1="-3369.0754" y1="2665.9185" x2="-3276.3413" y2="2387.7153" gradientTransform="matrix(1 0 0 1 5641.0796 0)" fill="#03a9f4">
						<stop offset="0" style="stop-color:#0a2472" fill="#03a9f4"/>
						<stop offset="0.9964" style="stop-color:#3f51b5" fill="#03a9f4"/>
					</linearGradient>
					<path style="fill:url(#SVGID_00000164481692392475633550000004206554972730939534_);" d="M2330.877,2445.914       c0,0,5.695,29.18-5.167,44.581c-5.41,7.671-12.706,14.177-10.561,20.421c1.438,4.184,6.898,7.191,11.523,6.716       c8.855-0.91,13.763-14.485,17.226-24.059c5.113-14.143,7.964-44.405,7.964-44.405L2330.877,2445.914z"/>
					
						<linearGradient id="SVGID_00000048498512971593330980000012918014318306957465_" gradientUnits="userSpaceOnUse" x1="-3254.8096" y1="2197.2131" x2="-3185.6418" y2="2597.0896" gradientTransform="matrix(1 0 0 1 5641.0796 0)" fill="#03a9f4">
						<stop offset="0" style="stop-color:#00072d" fill="#03a9f4"/>
						<stop offset="1" style="stop-color:#000000" fill="#03a9f4"/>
					</linearGradient>
					<path style="fill:url(#SVGID_00000048498512971593330980000012918014318306957465_);" d="M2347.607,2470.512       c-6.456-2.351-12.911-4.703-19.366-7.054c-10.071-23.003-22.362-60.784-18.257-106.707       c10.558-118.098,119.786-180.679,131.92-187.377c29.76,14.932,59.903,35.996,60.995,62.551       c1.37,33.334-44.041,50.955-86.73,99.699C2390.545,2360.882,2363.166,2404.479,2347.607,2470.512z"/>
					
						<linearGradient id="SVGID_00000128482195445150412790000013591964697592171191_" gradientUnits="userSpaceOnUse" x1="-3157.1284" y1="2671.125" x2="-3058.78" y2="2359.8687" gradientTransform="matrix(1 0 0 1 5641.0796 0)" fill="#03a9f4">
						<stop offset="0" style="stop-color:#00072d" fill="#03a9f4"/>
						<stop offset="1" style="stop-color:#000000" fill="#03a9f4"/>
					</linearGradient>
					<path style="fill:url(#SVGID_00000128482195445150412790000013591964697592171191_);" d="M2354.566,2635.586       c-21.33-83.321-15.881-151.313-9.728-190.483c9.301-59.201,28.217-179.623,108.616-224.526       c17.557-9.806,42.656-18.587,73.246-45.848c25.546-22.766,41.783-46.709,51.58-63.578       c107.525-31.542,206.701-18.76,250.465,38.907c5.057,6.663,17.717,21.116,20.165,42.428       c5.527,48.085-41.72,105.975-94.737,118.064c-67.379,15.364-106.469-53.821-166.166-30.802       c-16.699,6.439-30.856,22.395-59.171,54.307c-36.021,40.596-56.27,78.057-63.93,93.046       c-22.811,44.635-40.109,77.584-42.632,120.287c-0.587,9.948-0.938,30.046-12.591,51.722       c-8.944,16.639-21.068,27.734-30.088,34.588C2371.252,2634.327,2362.909,2634.958,2354.566,2635.586z"/>
					
						<linearGradient id="SVGID_00000182523961870086049860000011518228599684713146_" gradientUnits="userSpaceOnUse" x1="-3157.1199" y1="2671.1287" x2="-3058.7712" y2="2359.8718" gradientTransform="matrix(1 0 0 1 5641.0796 0)" fill="#03a9f4">
						<stop offset="0" style="stop-color:#00072d" fill="#03a9f4"/>
						<stop offset="1" style="stop-color:#000000" fill="#03a9f4"/>
					</linearGradient>
					<path style="opacity:0.3;fill:url(#SVGID_00000182523961870086049860000011518228599684713146_);" d="M2848.911,2192.486       c-2.449-21.312-15.109-35.765-20.165-42.428c-43.763-57.667-142.94-70.45-250.465-38.907       c-9.797,16.868-26.034,40.812-51.579,63.578c-30.591,27.261-55.69,36.042-73.247,45.848       c-49.095,27.42-75.242,82.992-90.296,135.596c22.336-34.631,41.455-43.838,56.251-44.002       c21.179-0.236,30.641,17.872,55.929,15.4c27.029-2.641,33.208-24.99,55.118-27.558c6.558-0.769,14.627,0.243,24.319,5.403       c12.933-13.542,22.573-21.558,33.232-25.667c59.697-23.019,98.786,46.166,166.166,30.802       C2807.19,2298.461,2854.438,2240.572,2848.911,2192.486z"/>
					
						<linearGradient id="SVGID_00000009558986782160238990000009880244089176853667_" gradientUnits="userSpaceOnUse" x1="-3018.73" y1="2156.854" x2="-2949.7217" y2="2555.8091" gradientTransform="matrix(1 0 0 1 5641.0796 0)" fill="#03a9f4">
						<stop offset="0" style="stop-color:#00072d" fill="#03a9f4"/>
						<stop offset="1" style="stop-color:#000000" fill="#03a9f4"/>
					</linearGradient>
					<path style="fill:url(#SVGID_00000009558986782160238990000009880244089176853667_);" d="M2410.277,2257.844       c12.17-0.646,30.911-1.021,53.518,1.213c107.287,10.602,136.863,63.671,225.533,76.621       c20.975,3.064,114.368,16.704,154.818-37.286c29.04-38.761,24.647-105.551-7.117-131.819       c-13.443-11.118-26.752-10.809-112.846-10.03c-32.423,0.294-64.846,0.398-97.268,0.812       c-137.243,1.749-163.489-7.756-188.461,14.944C2426.805,2182.887,2409.771,2205.632,2410.277,2257.844z"/>
					<g>
						<g>
							
								<linearGradient id="SVGID_00000091716039848545912480000005603890491635011211_" gradientUnits="userSpaceOnUse" x1="-3118.5017" y1="1909.1631" x2="-2505.488" y2="2133.6472" gradientTransform="matrix(1 0 0 1 5641.0796 0)" fill="#03a9f4">
								<stop offset="0" style="stop-color:#3f51b5" fill="#03a9f4"/>
								<stop offset="1" style="stop-color:#0a2472" fill="#03a9f4"/>
							</linearGradient>
							<path style="fill:url(#SVGID_00000091716039848545912480000005603890491635011211_);" d="M2700.011,1817.501         c0,0,160.15-46.705,176.764,70.54c15.924,112.375-65.652,163.945-28.535,277.77c4.302,13.194-304.859-47.244-304.859-47.244         c41.269-51.486,50.859-93.961,51.845-123.494c1.081-32.378-8.251-47.094,0-85.369c0,0,9.208-42.706,42.424-79.378         C2642.418,1825.062,2648.103,1819.578,2700.011,1817.501z"/>
						</g>
						<g>
							<path style="fill:#edf9fe;" d="M2802.882,2141.782c-0.155,0-0.316-0.02-0.475-0.063         c-1.502-0.401-151.08-40.205-239.42-45.156c-1.013-0.057-1.79-0.926-1.732-1.941c0.058-1.012,0.798-1.777,1.941-1.734         c88.718,4.973,238.658,44.874,240.161,45.277c0.981,0.262,1.567,1.271,1.305,2.252         C2804.438,2141.24,2803.694,2141.782,2802.882,2141.782z"/>
						</g>
					</g>
					<g>
						
							<linearGradient id="SVGID_00000091704522867954452830000010427080555299922338_" gradientUnits="userSpaceOnUse" x1="4964.2842" y1="1275.3341" x2="4971.3311" y2="1087.6182" gradientTransform="matrix(-0.984 0.1784 0.1784 0.984 7389.5161 -244.2395)" fill="#03a9f4">
							<stop offset="0" style="stop-color:#0a2472" fill="#03a9f4"/>
							<stop offset="0.9964" style="stop-color:#3f51b5" fill="#03a9f4"/>
						</linearGradient>
						<path style="fill:url(#SVGID_00000091704522867954452830000010427080555299922338_);" d="M2734.793,1747.236        c-1.468,6.854-8.935,43.634,6.113,53.098c3.262,2.052,9.53,3.226,22.066,5.576c8.208,1.538,15.094,2.482,19.951,3.063        c-0.701,6.167-2.779,16.206-9.897,25.338c-19.952,25.598-59.958,18.974-65.664,17.934        c-20.123-3.664-39.925-9.882-44.707-13.681c-7.281-5.786-13.006-10.127-16.393-14.537c7.788-3.763,23.51-13.688,34.061-16.935        c7.885-2.426,15.287-4.157,22.02-5.4c1.106-7.105,2.214-14.21,3.321-21.315        C2715.374,1769.328,2725.084,1758.283,2734.793,1747.236z"/>
						
							<linearGradient id="SVGID_00000160896290773828126360000007805599649587331216_" gradientUnits="userSpaceOnUse" x1="4960.8384" y1="1113.0862" x2="4958.0288" y2="1339.4487" gradientTransform="matrix(-0.984 0.1784 0.1784 0.984 7389.5161 -244.2395)" fill="#03a9f4">
							<stop offset="0" style="stop-color:#0a2472" fill="#03a9f4"/>
							<stop offset="0.9964" style="stop-color:#3f51b5" fill="#03a9f4"/>
						</linearGradient>
						<path style="fill:url(#SVGID_00000160896290773828126360000007805599649587331216_);" d="M2735.235,1766.512        c0,0-2.533,25.104-26.935,29.528c-21.85,3.961-38.297-48.838-27.115-62.495c3.73-4.556,12.938-8.89,20.921-8.66        c5.614,0.162,24.577,7.384,27.224,26.359c3.777-3.979,8.482-5.123,10.803-3.456c2.943,2.114,1.367,8.259,1.008,9.651        C2739.902,1762.261,2736.752,1765.251,2735.235,1766.512z"/>
					</g>
				</g>
			</g>
			<g>
				
					<linearGradient id="SVGID_00000023265021074812816680000001777519906595937458_" gradientUnits="userSpaceOnUse" x1="-1626.9102" y1="2151.6426" x2="-1358.996" y2="2151.6426" gradientTransform="matrix(1 0 0 1 4131.0864 0)" fill="#03a9f4">
					<stop offset="0" style="stop-color:#3f51b5" fill="#03a9f4"/>
					<stop offset="0.9964" style="stop-color:#3f51b5" fill="#03a9f4"/>
				</linearGradient>
				<path style="fill:url(#SVGID_00000023265021074812816680000001777519906595937458_);" d="M2510.738,2131.731l245.115,11.927      c3.374,0.165,6.451,1.973,8.236,4.839l6.782,10.886c3.375,5.419-0.681,12.408-7.061,12.165l-259.635-9.89L2510.738,2131.731z"/>
				
					<linearGradient id="SVGID_00000057840829975287869740000003143486676301781182_" gradientUnits="userSpaceOnUse" x1="-1798.2413" y1="1982.6411" x2="-1622.5894" y2="2156.8879" gradientTransform="matrix(1 0 0 1 4131.0864 0)" fill="#03a9f4">
					<stop offset="0" style="stop-color:#3f51b5" fill="#03a9f4"/>
					<stop offset="0.9964" style="stop-color:#3f51b5" fill="#03a9f4"/>
				</linearGradient>
				<path style="fill:url(#SVGID_00000057840829975287869740000003143486676301781182_);" d="M2255.797,1995.234l253.232,4.907      c7.493,0.145,14.354,4.227,18.056,10.742l87.691,154.284l-267.444-10.655c-7.34-0.293-14.039-4.267-17.812-10.571      l-81.246-135.732C2244.816,2002.431,2249.064,1995.103,2255.797,1995.234z"/>
				
					<linearGradient id="SVGID_00000144310716342739941800000002605026907217735812_" gradientUnits="userSpaceOnUse" x1="-1798.241" y1="1982.6412" x2="-1622.5889" y2="2156.8879" gradientTransform="matrix(1 0 0 1 4131.0864 0)" fill="#03a9f4">
					<stop offset="0" style="stop-color:#3f51b5" fill="#03a9f4"/>
					<stop offset="0.9964" style="stop-color:#3f51b5" fill="#03a9f4"/>
				</linearGradient>
				<path style="opacity:0.3;fill:url(#SVGID_00000144310716342739941800000002605026907217735812_);" d="M2527.086,2010.883      c-3.703-6.515-10.564-10.597-18.057-10.743l-5.55-0.107c-0.827,8.174-3.335,15.651-8.337,21.689      c-15.615,18.848-41.557,7.222-60.894,27.168c-21.24,21.911-1.618,47.994-20.609,68.387      c-19.989,21.464-52.312,3.988-89.468,17.724l5.35,8.938c3.773,6.304,10.471,10.279,17.812,10.572l267.444,10.655      L2527.086,2010.883z"/>
			</g>
			<g>
				
					<linearGradient id="SVGID_00000025404975252007254180000007882074645002521008_" gradientUnits="userSpaceOnUse" x1="2963.551" y1="2167.126" x2="2979.9485" y2="2430.6548" gradientTransform="matrix(-0.9933 -0.1159 -0.1159 0.9933 6088.7993 89.9445)" fill="#03a9f4">
					<stop offset="0" style="stop-color:#3f51b5" fill="#03a9f4"/>
					<stop offset="1" style="stop-color:#0a2472" fill="#03a9f4"/>
				</linearGradient>
				<path style="fill:url(#SVGID_00000025404975252007254180000007882074645002521008_);" d="M2735.88,2123.54      c-3.19-8.425-6.381-16.849-9.571-25.275c35.261-9.668,84.027-23.951,134.047-41.824c7.834-2.8,17.14-6.267,20.189-14.51      c8.553-23.124-45.821-47.086-66.959-97.577c-19.549-46.697-8.789-111.501,13.898-119.157      c47.211-15.931,214.63,192.465,154.836,280.315C2948.52,2155.171,2844.313,2163.078,2735.88,2123.54z"/>
			</g>
			
				<linearGradient id="SVGID_00000016773892341558291440000007733452145851521726_" gradientUnits="userSpaceOnUse" x1="3199.4084" y1="2098.8125" x2="3110.3481" y2="2182.7405" gradientTransform="matrix(-1 0 0 1 5871.3652 0)" fill="#03a9f4">
				<stop offset="0" style="stop-color:#0a2472" fill="#03a9f4"/>
				<stop offset="0.9964" style="stop-color:#3f51b5" fill="#03a9f4"/>
			</linearGradient>
			<path style="fill:url(#SVGID_00000016773892341558291440000007733452145851521726_);" d="M2726.309,2098.265     c-22.136-11.759-48.634,0.294-50.342,1.101c-4.863,2.295-11.943,6.386-19.095,13.692c-0.808,1.104-10.411,14.409-6.913,18.672     c2.804,3.416,13.662,0.584,26.713-7.532c5.47-0.767,13.614-1.471,23.371-0.573c17.916,1.653,26.124,7.313,32.627,2.427     c4.763-3.576,6.386-11.138,4.672-16.761C2735.502,2103.252,2730.056,2100.256,2726.309,2098.265z"/>
		</g>
	</g>
</g>
</svg>